<svg viewBox="0 0 330 200" xmlns="http://www.w3.org/2000/svg"><g><g><g><g><g><line x1="39.98800086975098" y1="172.24828946535231" x2="34.98800086975098" y2="172.24828946535231" style="visibility: inherit;" fill="rgb(0, 0, 0)" stroke="rgb(204, 204, 204)" stroke-width="1px"></line><line x1="39.98800086975098" y1="147.32242668479205" x2="34.98800086975098" y2="147.32242668479205" style="visibility: inherit;" fill="rgb(0, 0, 0)" stroke="rgb(204, 204, 204)" stroke-width="1px"></line><line x1="39.98800086975098" y1="122.39656390423178" x2="34.98800086975098" y2="122.39656390423178" style="visibility: inherit;" fill="rgb(0, 0, 0)" stroke="rgb(204, 204, 204)" stroke-width="1px"></line><line x1="39.98800086975098" y1="97.47070112367153" x2="34.98800086975098" y2="97.47070112367153" style="visibility: inherit;" fill="rgb(0, 0, 0)" stroke="rgb(204, 204, 204)" stroke-width="1px"></line><line x1="39.98800086975098" y1="72.54483834311127" x2="34.98800086975098" y2="72.54483834311127" style="visibility: inherit;" fill="rgb(0, 0, 0)" stroke="rgb(204, 204, 204)" stroke-width="1px"></line><line x1="39.98800086975098" y1="47.618975562551014" x2="34.98800086975098" y2="47.618975562551014" style="visibility: inherit;" fill="rgb(0, 0, 0)" stroke="rgb(204, 204, 204)" stroke-width="1px"></line><line x1="39.98800086975098" y1="22.69311278199075" x2="34.98800086975098" y2="22.69311278199075" style="visibility: inherit;" fill="rgb(0, 0, 0)" stroke="rgb(204, 204, 204)" stroke-width="1px"></line></g><g transform="translate(29.988000869750977, 0)"><text style="text-anchor: end; visibility: inherit; font-family: &quot;Helvetica Neue&quot;, sans-serif; font-size: 12px; font-weight: 200;" x="0" y="172.24828946535231" dx="0em" dy="0.3em" fill="rgb(50, 49, 63)" stroke="none" stroke-width="1px">0</text><text style="text-anchor: end; visibility: inherit; font-family: &quot;Helvetica Neue&quot;, sans-serif; font-size: 12px; font-weight: 200;" x="0" y="147.32242668479205" dx="0em" dy="0.3em" fill="rgb(50, 49, 63)" stroke="none" stroke-width="1px">50</text><text style="text-anchor: end; visibility: inherit; font-family: &quot;Helvetica Neue&quot;, sans-serif; font-size: 12px; font-weight: 200;" x="0" y="122.39656390423178" dx="0em" dy="0.3em" fill="rgb(50, 49, 63)" stroke="none" stroke-width="1px">100</text><text style="text-anchor: end; visibility: inherit; font-family: &quot;Helvetica Neue&quot;, sans-serif; font-size: 12px; font-weight: 200;" x="0" y="97.47070112367153" dx="0em" dy="0.3em" fill="rgb(50, 49, 63)" stroke="none" stroke-width="1px">150</text><text style="text-anchor: end; visibility: inherit; font-family: &quot;Helvetica Neue&quot;, sans-serif; font-size: 12px; font-weight: 200;" x="0" y="72.54483834311127" dx="0em" dy="0.3em" fill="rgb(50, 49, 63)" stroke="none" stroke-width="1px">200</text><text style="text-anchor: end; visibility: inherit; font-family: &quot;Helvetica Neue&quot;, sans-serif; font-size: 12px; font-weight: 200;" x="0" y="47.618975562551014" dx="0em" dy="0.3em" fill="rgb(50, 49, 63)" stroke="none" stroke-width="1px">250</text><text style="text-anchor: end; visibility: inherit; font-family: &quot;Helvetica Neue&quot;, sans-serif; font-size: 12px; font-weight: 200;" x="0" y="22.69311278199075" dx="0em" dy="0.3em" fill="rgb(50, 49, 63)" stroke="none" stroke-width="1px">300</text></g><line x1="39.98800086975098" y1="0" x2="39.98800086975098" y2="178.61999988555908" fill="rgb(0, 0, 0)" stroke="rgb(204, 204, 204)" stroke-width="1px"></line></g></g><g transform="translate(39, 0)" clip-path="url(#clip_0)"><clipPath id="clip_0"><rect width="290" height="178"></rect></clipPath><g><g><g><line x1="13.079852032139712" y1="0" x2="13.079852032139712" y2="178.61999988555908" fill="rgb(0, 0, 0)" stroke="rgb(60, 60, 60)" stroke-width="1px" opacity="0.25"></line><line x1="35.44872427669385" y1="0" x2="35.44872427669385" y2="178.61999988555908" fill="rgb(0, 0, 0)" stroke="rgb(60, 60, 60)" stroke-width="1px" opacity="0.25"></line><line x1="57.81759652124799" y1="0" x2="57.81759652124799" y2="178.61999988555908" fill="rgb(0, 0, 0)" stroke="rgb(60, 60, 60)" stroke-width="1px" opacity="0.25"></line><line x1="80.18646876580213" y1="0" x2="80.18646876580213" y2="178.61999988555908" fill="rgb(0, 0, 0)" stroke="rgb(60, 60, 60)" stroke-width="1px" opacity="0.25"></line><line x1="102.55534101035626" y1="0" x2="102.55534101035626" y2="178.61999988555908" fill="rgb(0, 0, 0)" stroke="rgb(60, 60, 60)" stroke-width="1px" opacity="0.25"></line><line x1="124.9242132549104" y1="0" x2="124.9242132549104" y2="178.61999988555908" fill="rgb(0, 0, 0)" stroke="rgb(60, 60, 60)" stroke-width="1px" opacity="0.25"></line><line x1="147.29308549946455" y1="0" x2="147.29308549946455" y2="178.61999988555908" fill="rgb(0, 0, 0)" stroke="rgb(60, 60, 60)" stroke-width="1px" opacity="0.25"></line><line x1="169.66195774401868" y1="0" x2="169.66195774401868" y2="178.61999988555908" fill="rgb(0, 0, 0)" stroke="rgb(60, 60, 60)" stroke-width="1px" opacity="0.25"></line><line x1="192.03082998857283" y1="0" x2="192.03082998857283" y2="178.61999988555908" fill="rgb(0, 0, 0)" stroke="rgb(60, 60, 60)" stroke-width="1px" opacity="0.25"></line><line x1="214.39970223312696" y1="0" x2="214.39970223312696" y2="178.61999988555908" fill="rgb(0, 0, 0)" stroke="rgb(60, 60, 60)" stroke-width="1px" opacity="0.25"></line><line x1="236.76857447768106" y1="0" x2="236.76857447768106" y2="178.61999988555908" fill="rgb(0, 0, 0)" stroke="rgb(60, 60, 60)" stroke-width="1px" opacity="0.25"></line><line x1="259.1374467222352" y1="0" x2="259.1374467222352" y2="178.61999988555908" fill="rgb(0, 0, 0)" stroke="rgb(60, 60, 60)" stroke-width="1px" opacity="0.25"></line><line x1="281.50631896678937" y1="0" x2="281.50631896678937" y2="178.61999988555908" fill="rgb(0, 0, 0)" stroke="rgb(60, 60, 60)" stroke-width="1px" opacity="0.25"></line></g><g><line x1="0" y1="172.24828946535231" x2="290.011999130249" y2="172.24828946535231" fill="rgb(0, 0, 0)" stroke="rgb(60, 60, 60)" stroke-width="1px" opacity="0.25"></line><line x1="0" y1="147.32242668479205" x2="290.011999130249" y2="147.32242668479205" fill="rgb(0, 0, 0)" stroke="rgb(60, 60, 60)" stroke-width="1px" opacity="0.25"></line><line x1="0" y1="122.39656390423178" x2="290.011999130249" y2="122.39656390423178" fill="rgb(0, 0, 0)" stroke="rgb(60, 60, 60)" stroke-width="1px" opacity="0.25"></line><line x1="0" y1="97.47070112367153" x2="290.011999130249" y2="97.47070112367153" fill="rgb(0, 0, 0)" stroke="rgb(60, 60, 60)" stroke-width="1px" opacity="0.25"></line><line x1="0" y1="72.54483834311127" x2="290.011999130249" y2="72.54483834311127" fill="rgb(0, 0, 0)" stroke="rgb(60, 60, 60)" stroke-width="1px" opacity="0.25"></line><line x1="0" y1="47.618975562551014" x2="290.011999130249" y2="47.618975562551014" fill="rgb(0, 0, 0)" stroke="rgb(60, 60, 60)" stroke-width="1px" opacity="0.25"></line><line x1="0" y1="22.69311278199075" x2="290.011999130249" y2="22.69311278199075" fill="rgb(0, 0, 0)" stroke="rgb(60, 60, 60)" stroke-width="1px" opacity="0.25"></line></g></g></g><g><g><line x1="0" y1="172.24828946535231" x2="290.011999130249" y2="172.24828946535231" fill="rgb(0, 0, 0)" stroke="rgb(153, 153, 153)" stroke-width="1.5px"></line></g></g><g><g><line x1="13.079852032139712" y1="0" x2="13.079852032139712" y2="178.61999988555908" fill="rgb(0, 0, 0)" stroke="rgb(153, 153, 153)" stroke-width="1.5px"></line></g></g><g><g><g><g><g><path style="fill: none;" stroke="rgb(0, 119, 187)" stroke-width="2px" d="M13.33284397722562,115.91583958128612L13.578901571915715,116.85055943555713L13.862538871976662,112.86369234215938L14.309021561977962,94.42644503539859L14.600040589879612,100.04960015000133L14.993285363938872,93.57108001772889L15.28743603395476,98.9711227889493L15.374003569541186,120.93383135766722L15.458334217903154,134.07440089909426L15.809972889587545,117.8993877823143L15.975055166752353,124.94829167715591L16.079741488856868,134.55696390751154L16.133203093521352,144.88115335100088L16.16944066655753,152.60366751191486L16.192256916246976,158.43030552613482L16.21261258998952,162.14394387352277L16.23520515095652,164.17201560631312L16.25779771192352,165.388638921403L16.327588593326528,161.91079171081228L16.433617047765715,156.5937089409986L16.87338907609365,123.65142029903184L17.019681500573032,130.04904046106674L17.089025004531152,140.74721057988478L17.154118422762803,147.54493341289268L17.445584828109343,131.44351008606864L17.734814346231428,121.9820926295796L17.782683732834776,137.82127994318012L17.871264466923208,143.69557433480855L18.078400223907778,136.65157894805168L18.297391483181965,131.3683259529769L18.455315721228516,133.64218466535192L18.763335092036026,121.6262957985246L18.93490434215176,126.58058470822252L19.141369032968992,126.44240892140827L19.335307155329275,127.47618334070216L19.465717680515027,133.7596036066542L19.6703928615527,130.90934637712405L19.854712368847824,131.01379456358708L20.085111752966732,126.96868158409936L20.293142264841087,126.53568282728489L20.465829958569046,129.426513240098L20.565818817502198,137.64173505168938L20.747454060127982,135.29251696276586L20.88278573720753,138.0107083784802L21.0172226593973,139.72138629278427L21.144054165023924,141.42577605252026L21.253214261577348,144.02372474035496L21.341794995665786,147.41703760581936L21.5717470023398,136.85050819021586L21.870371446804597,124.38879925053135L21.992505489259862,132.64497877822186L22.192035829681284,130.69920798140214L22.34526260455648,133.65946777124034L22.422882591245088,142.17557678887513L22.57454354506316,140.6848732787476L22.910300317453917,123.37926250940305L23.10446212853665,125.61835356842066L23.32926929459442,124.22993425162267L23.52477323801182,126.00911277667615L23.82630563586841,117.62473242104845L24.139693536014615,111.53724701723472L24.475450308405374,105.89068675250176L24.740968821948233,108.76412914976356L24.958617948887742,114.75550107906943L25.337546644710493,103.97308841045043L25.70529090441096,98.50067532050144L26.068337700940074,95.63598013562078L26.396936434212574,96.98803114488213L26.657757484584074,103.84128997563438L26.98054031107299,102.42967316910122L27.266190809635944,104.89285887952288L27.63885622123022,98.61383998284079L27.883347994863193,106.27244475198192L28.136339939949103,110.10986229774996L28.46404391833182,105.75212198597427L28.67967984676932,113.12776329708663L28.881223385692756,118.80941217643586L29.146741899235614,116.51536440412399L29.35768036450176,120.0044629384191L29.621185679542606,117.41185985625081L29.984456164794167,106.96275199247066L30.3190944935727,103.24569318876566L30.63628510200047,102.5708323525912L30.90694845615958,106.31358002611331L31.30824602422688,96.91386675623197L31.580922576887993,102.73993415200697L31.898560562760665,102.22749615862864L32.19897451700503,103.45546590134258L32.43071603345861,110.31404055868892L32.769828136686044,104.85765252400765L33.12258525198266,100.36743942513226L33.42948617917795,101.76115306181892L33.71401823412868,104.59145026627571L34.12068433153467,95.40201050931793L34.3953740826978,101.6533538875677L34.73784151676192,99.3621301679682L35.076282553822026,98.34632896879015L35.31876112895299,106.29140465984237L35.557660684524826,111.37750081379407L35.79812606115379,114.28957428313556L36.11867200041825,108.8980506558464L36.46695534126596,103.19049210872448L36.83201533629708,98.27040521361772L37.074941288872935,106.20596963483158L37.27402425184947,114.87568326728098L37.58047780159986,110.50598013901546L37.829443349681746,113.00891504119778L38.08936964516347,113.53358337859234L38.409244518260586,108.50427879233538L38.75708048166341,102.9941097625252L39.1514436993349,95.54034416941228L39.405554088033035,103.5708984970859L39.74913996570938,100.41295348255687L40.08735731404704,98.99676486485095L40.62711820130813,80.18048858491638L41.052350462677104,79.10035560333158L41.44470048184659,81.38355971154085L41.832576726567154,83.15229598095539L42.14081978609712,91.31242163688295L42.56336778279674,86.01880615137117L42.8465577054128,95.26568595708298L43.23644714863537,91.30210369063593L43.78918198179831,74.40713123882782L44.26921798016644,70.75087209068863L44.73135888073893,70.15237181976096L44.97495589948212,89.27532691930261L45.37356920288008,86.93020256629737L45.69366776469964,92.52230839765082L46.08713622748135,89.33702793701016L46.67029272689688,70.51615069904426L47.247857008251266,59.72214161187591L47.69232649975056,65.11044988582945L48.04016246315338,76.95781241862163L48.52422485852553,71.92235080869112L49.0246165306362,67.44540284780653L49.512705323012376,65.85597203362043L49.85696226685606,77.72417796797053L50.32603751782437,73.71819577479692L50.62645147206873,86.34988567104358L51.02484108674423,85.19487668194166L51.77196141971235,53.414336445648914L52.20166745553023,62.64185051528213L52.75395491124827,57.25086314823072L53.1711343786092,66.06044640648346L53.576905721125414,72.36317277996511L54.25311672907829,52.036515339779356L54.91635379112932,40.99707847451961L55.4565620558353,45.34079597881029L55.92988739253007,53.90929164141154L56.453319003052634,54.58367564577907L56.920157366796474,60.03330128372653L57.30467828068036,70.64125127763351L57.700831008131416,75.96910294814012L58.22403892993154,67.8395043371238L58.55554561659583,80.05091608432453L58.977869924573014,79.28184168443585L59.37558847308119,81.01387296919195L59.776662352426044,81.7539813866789L60.16073588886504,83.71354011131226L60.43743883853017,94.46080665382742L60.7145891656402,100.86928428607527L61.16912464964953,88.9014044302489L61.67577960598869,77.07449508591507L62.13635468550406,74.08613288263423L62.465624484943895,83.99830011387529L62.77923607381255,91.34144876833128L63.331523529530585,74.47062210006021L63.99833961114074,54.13849027001379L64.39493971603669,66.02756557166094L64.89555507686981,63.88858979828083L65.41496029038836,60.930187572482254L66.19116015727438,36.263233250795L66.58977346067233,55.122946365192774L67.09307308617481,57.106530600248135L67.72432266091613,46.89060389873069L68.20816136756584,53.901964561356294L68.6231039477023,64.25051415660326L69.18277313126106,57.558017947075044L69.71828393279569,55.69611537414009L70.17192466191524,61.87726462690243L70.86021486088018,44.66816830748897L71.35367218259503,51.71105291841842L71.8746432171707,53.484081221535234L72.41932525632559,52.434183822530684L72.97183640076608,51.10632122527227L73.58429612282198,44.96550112093135L74.23500661641606,37.87114981286308L74.8423214978557,37.48303171448188L75.35792400309266,45.425843847476955L75.72029973345445,63.85090393102101L76.14240035270919,69.58177629976134L76.40143189330112,87.55706167754512L76.80563741476023,85.40072616563167L77.48296686632531,59.759343920057034L78.10705840194838,49.12039641196466L78.52356680314197,61.24198904393873L79.09665731004746,54.55645842330158L79.55767976700771,60.535427070450964L79.954950938071,69.80590497270833L80.38644648366844,72.31726854388847L80.89175930767293,67.24365891252866L81.43800716788493,60.550346214097175L81.96501779796664,58.24925612871611L82.3048009673614,73.55896222951691L82.65062373226222,82.206384819771L83.07697443724342,80.21618989312209L83.65274920881825,65.70169430136762L84.10638993793779,67.88061198323898L84.61215013938717,64.54178116152379L84.89198473116653,82.67858131654127L85.2199123982717,89.27341148994148L85.7690682118755,73.50896817908546L86.11489097677632,82.17638838951213L86.61416420527478,73.69752884742138L87.11299005632831,68.65009389407426L87.57088087117434,69.27077984168157L87.97105999562942,74.78789009669516L88.56651937477945,60.6899300325106L88.94432962698997,71.63344923363742L89.64604114930162,49.325437658063066L90.25827718263508,43.91690680249772L90.80474873156953,46.53435304077104L91.30469302623531,52.2524849589618L91.66952933254399,67.72753978835983L92.31352916446471,52.12659372005359L92.58799522690539,75.70804572131668L93.03537267179647,74.4427627700345L93.69525440301082,54.739937286039435L94.11824977715534,64.03543172624988L94.49180994363938,74.01962214706234L94.91905540351037,75.22437074568225L95.30983960162273,79.19755301998083L95.55097604441903,94.92178292763268L95.78294124959507,105.17389038850932L96.10796096330843,103.0298265145817L96.22606860875968,120.18852740851668L96.56875973154625,110.46329541593784L96.75442137117605,118.62652014941162L96.99108403952343,118.97797700978012L97.28881372909845,113.74504208618528L97.54202936290679,114.5734803123183L97.83864060886958,111.20204751883044L98.18848977077441,104.43330600348534L98.54527328307505,99.75389848023725L98.8157129485117,104.6433600886546L99.07027071465474,108.99282575537005L99.31722306423461,112.28048892730135L99.62345292526255,108.96880544233528L100.00327637597508,100.42130644188747L100.3884683560263,94.81423169331516L100.75442310594721,93.1648843778496L101.163997156745,88.28684139480288L101.55276815635536,87.2145004043901L101.72075838691195,106.25255797448516L101.96189482970824,111.15478590033528L102.1596356603501,117.96461686365909L102.33992877064121,123.60588988770192L102.7696348064591,104.75678258051391L102.95171742652977,115.52166318747764L103.1159049488048,123.57584676961174L103.46821468665652,111.63823674440205L103.82343237790005,104.21644114781684L104.13860978782581,103.33274916566664L104.36073268921425,111.09785928412226L104.57547386276195,116.41496874114401L104.93896803673597,106.34467541609898L105.3680030063865,94.4598765767671L105.52637462187795,111.45723244475028L105.70465453366704,119.88092575264744L106.06747764147372,108.48407230221595L106.37079954910986,106.95018200603559L106.69224024326411,104.41465374577177L106.81303215338471,120.78013531240194L107.48454569816622,81.50544248562228L108.13838783387455,59.515946185618475L108.44170974151069,77.56930633607709L108.96379921969857,68.8993298210082L109.29016106574662,81.14544785835905L109.63083899003118,87.21691268078017L110.16433659306381,73.67091720930006L110.73988767591618,61.79447259838199L111.2979910384178,56.22397723517183L111.77511908339415,60.10020926995443L112.46922518914266,43.08348201581708L113.17943688290725,31.437713533008093L113.55008909599951,54.720220812576684L114.02565131991874,59.33753963942689L114.71774422716524,42.805345232437446L114.97878896625919,71.3117380422139L115.2637683986548,86.28191896125148L115.6129464943923,89.541048505445L116.35961944991551,56.061923354366115L116.8300368332185,60.60119764820442L117.5147480126243,44.22158038094449L117.89032137761036,61.95184634494221L118.23569676506628,75.28199910364137L118.72423293488734,70.51804901521399L119.12306992700773,75.65589391653658L119.6391198096896,68.28968039680245L119.93550736692994,83.45170947682853L120.25515855130462,90.4750963585847L120.46341275190142,104.61959130660125L120.93204062542483,89.89532454988267L121.29799537534574,90.21354009179011L121.873993835643,71.68016251326085L122.04824735042808,96.37361530498148L122.51866473373106,84.78821281857367L122.77545938709854,96.880330491077L123.2035996018593,88.86103420827642L123.64023998807299,83.29170960152544L124.01022113499792,85.89244113290201L124.58510115168296,69.18720658905023L124.93852933314693,78.90534918494289L125.26712806641943,86.94965257447538L125.82858675975773,71.01797486746115L126.23771343311063,75.03857950318498L126.858449637897,58.587048115208134L127.11591535743182,81.09981051119672L127.37114418974218,94.80687485103434L127.83373246775956,84.54609270406105L128.04153929091146,101.10206988579439L128.36096678656372,101.08525146856394L128.59762945491107,108.45321580127153L129.06804683821406,92.03597311634768L129.59595222318555,77.06087072625176L129.99546028147327,79.52176426394435L130.35470436972082,84.58762462696058L130.6904611421116,89.72091331833738L130.91325510966732,102.8709366178637L131.36286944178286,90.54109040571825L131.91538058622336,73.9704651751848L132.14018775228112,93.24120121568134L132.4307594027379,98.94108113107467L133.04702183307535,73.3273628964309L133.4420561169142,77.6804733705408L134.081582174386,58.49716767385112L134.40279917981778,75.36278401106082L134.73609537626163,84.4053577583496L135.21210497762576,77.10874103498332L135.5738096418202,82.92046492273974L135.7737873596865,100.82461737485728L136.08829370344495,101.35747453839797L136.35694385910202,105.76503185388819L136.7197669669087,100.01453596296042L137.09243237850296,95.68684623290332L137.50849340225167,89.22173970840925L138.01000351797458,77.72533273651516L138.3406154497491,86.06217466777399L138.6103840490184,96.48814848039157L138.99378651929007,92.61386304675477L139.2807791501877,98.88372744768517L139.87825172783974,74.96796744816773L140.24331172287086,81.33689041728364L141.0327092243812,47.330755451516524L141.34989983280894,69.02186971024172L141.80018523109183,70.17182758193013L142.17598228480034,77.50205275822601L142.52381824820316,84.39277414205958L142.92198417415622,84.04055167185885L143.35191389869655,80.99764078640835L143.75164564570673,81.86388743543856L144.0462436931675,91.75575983034733L144.4886999861648,84.5100858118492L144.96023581307998,77.57039167157205L145.31142710731947,84.13466713670047L145.66552635495077,87.81400283431812L146.08091631253217,84.55785634847305L146.3455400711852,96.04419245116094L146.79000956268453,86.90368038940046L147.59506527476603,49.27498111907528L148.35851488447267,30.406731155710617L148.70992986743462,55.816528919876035L149.18593946879872,59.95544373189918L150.05608859911186,27.3032970521769L150.99893656421983,1.2312847213978557L151.65837091798926,10.852934271472606L151.94603461505423,49.767347503300925L152.57124459428954,43.02549511078874L152.96627887812835,59.49935269915552L153.41186681323987,64.87707308707496L153.7896770654504,74.14573506637603L154.16189509959977,80.20544950956787L154.70769558236688,68.36730134422803L155.21725849209784,64.49480365284315L155.75813782297118,59.37960840658947L156.38647944432068,48.51368320670275L156.66362977143072,73.30101021780047L156.75355263785383,104.86376429445762L157.12062583138697,99.09490048741286L157.2966688559516,112.66293348048947L157.48904115725475,119.34808228140915L157.57068754094738,133.22981322306282L157.86036443651435,123.0140098793182L158.09725079358418,121.59053046177041L158.25920142863478,127.41657403643188L158.44441569081965,128.83836809361537L158.5428387286957,137.42843294355293L158.74572439995382,133.27017012723974L158.83475251148715,140.92502330528976L158.94816269376702,143.34439967338415L159.145456146964,137.31826742074966L159.63488707167485,107.66004541895646L160.4401664724788,61.708858229501274L161.05575783664892,51.04784879199394L161.78162774098473,34.820485283002824L162.15831954958298,56.21148583505499L162.53232709351195,69.28537384043808L163.11011506358875,58.963739674820346L163.46108266910585,72.99061784595703L163.9590137652696,68.3057088370103L164.52136721349768,59.751847081167455L164.88799302958594,72.06763397405393L165.42976711534902,63.843545055501295L165.7916954682659,74.94140542774294L166.42249766556236,57.63141260984274L166.78062331019765,71.55311708562184L167.21346098812978,73.24595045320675L167.61431117875222,77.11316978439535L168.1889675067148,63.93958568725385L168.80858526788896,52.0273552767717L169.33112212352174,53.534275370809794L169.85768537615854,54.07949743735887L170.2598776991156,65.4936526164568L170.53255425177673,83.88780566814185L171.04972257807083,73.12912399664337L171.38301877451468,83.06516174969912L171.67359042497145,92.83545745148531L172.20015367760826,77.6602066857642L172.5245023251543,86.58143897214953L173.0481576243993,74.16702213691426L173.60201090117445,64.02637885547256L174.18650953292465,55.21012197710759L174.65513740644806,60.24964295218649L175.02869757293212,71.74814888262432L175.27587361123443,89.91374241770023L175.62124899869036,92.05913674729618L175.90376785513908,98.94970547249898L176.87547166544252,41.64678195172044L177.51902411991833,36.5180167472694L178.4638852835283,6.580651543516495L179.09670067932672,16.435495284370006L179.48636643382687,44.02393119431571L179.88676924700437,59.61983900096806L180.34376530696065,63.9323884496325L180.87099962576477,60.25854260543758L181.53669726376268,45.71094602436244L182.10844563833348,45.35747796998564L182.66565424594535,46.441542001948676L183.10855791638753,57.281674342902676L183.78253203711594,43.187023179786394L184.42720293520398,37.34245803298674L185.2986941978518,13.615860274399608L186.17756718834036,-1.2781387239931519L186.63724751296593,27.154314140503942L187.26491806814812,29.238326283558507L188.25630648602677,-1.9348299526446908L188.7806328514391,20.997441145530672L189.4378303179841,22.912035028196755L190.0670666942234,26.553377635852485L190.8405822964401,15.876438005676818L191.3705008799136,31.185684664912344L192.03239580962992,28.606225428029262L192.73433102066406,23.489167552806265L193.29534233655747,32.98156462636703L194.04156791463578,22.16611075611877L194.63904049228785,28.937397433227886L195.19110425928343,37.048130163597904L195.42060888851256,70.66904601828658L196.25228355856507,37.161259576780736L196.65179161685282,55.58199757426172L196.93878424775045,76.66460816418935L197.51657221782727,63.3912802690711L198.17801977009873,47.96946051972398L198.64821346467926,55.76566185472673L198.8953895029816,80.32425020096167L199.56712673648556,57.21197559686625L200.10778237863644,55.02985348031093L200.3046284543885,84.36942047681306L201.02602458427538,55.2122420983833L201.6505634973433,46.35225150434522L202.14133655438883,52.96079355339185L202.58916137672483,60.75453069737229L203.18551551076465,52.19015284910223L203.85054208259524,40.92973789248404L204.32878857118382,50.82396221321949L204.9005369457546,48.42528768329987L205.35283554253948,57.63441337082813L205.88812265535168,55.76189149299168L206.4088700012049,55.93452323087892L206.839694480635,64.0542591352979L207.56377487519123,42.783854576614544L207.93442708828348,61.52790543874055L208.55874231262897,50.16159141586715L209.24255873714503,38.03757818535675L209.91429597064896,31.83997238750331L210.33169912673236,50.7939700427394L210.91172398403364,47.66949049395663L211.6040405800026,35.78457383784769L212.16281500867154,40.55821529963637L212.57238905946934,56.72283994787493L213.12601864752207,53.57981144935658L213.69239849275417,50.55737561599358L214.30172657269583,44.915302201423316L214.5820085419201,70.86281164721973L214.9647399460244,77.29848058335872L215.5315671687014,64.74869632448754L216.08877577631327,58.07627301464983L216.71241993449144,48.150437683335525L217.68703169818664,10.907988654055117L218.05746022255644,42.42232474980463L218.61041874444183,45.05932500972932L219.00097925383176,61.118464443008804L219.9330901602623,22.477535852504246L220.59587984486848,23.30157459676971L221.19514193230006,29.459152649989164L221.74631094440588,37.44094788017719L222.40708743051002,32.45908680831039L223.24524907351343,13.656999165953437L224.3511661172842,-21.493255966875836L227.69039136595126,-17.856264326454465L228.24088931188973,9.11151733081806L228.65605558074867,37.35630391097274L229.38617557081088,26.226686457208785L230.0104907951564,28.980860026948108L230.77550622592017,18.090671234696885L231.3262278605811,30.659739802909172L231.96217489849377,30.603779793946444L232.4860538864612,40.56048776539265L233.05936808208915,42.12762183428205L233.80984374589391,27.274873183686395L234.65784769268495,9.669081838386461L235.31347933817284,16.254600624231955L235.99394043185217,17.992494063742356L236.74285027459985,12.933383787100013L237.55931411152605,3.875826739164978L238.3748831935625,-1.478945945781362L239.2432428140961,-9.397813666802108L239.94159900557108,1.0057902711660915L240.51826853203568,18.095692984379383L241.43315540683795,-1.800691441224643L242.34491063952598,-13.459353650527902L242.7904985746375,21.101849277264904L243.15153217266462,49.37615254732361L243.72663587807207,47.25749153039561L244.4489267628487,32.86532318671817L245.25152189898333,17.071315607017937L246.02212954780825,10.446427327127594L246.62340483374186,21.56659929326699L247.35173531402455,16.91238677421461L247.93466812471763,27.081307908674518L248.60640535822156,25.266210221493964L249.40877680563372,12.53178364977532L249.9514456462866,28.042270274411607L250.87013522937048,3.828260764812825L251.41593571213758,22.540988097374992L252.08409392608237,22.861064509972834L252.5236422656879,43.43249820108389L252.93478213754278,58.307825465713904L253.9666582141841,11.897609494355976L255.1175366911664,-26.55696972203151L255.85906480607335,-13.138254141123753L256.4815905206393,5.521424840993575L257.50474273710523,-18.99654517880586L258.40687935472806,-22.91941256217595L258.86544123574146,14.269253288716527L259.50295409471124,20.629900619693473L259.69666852834905,64.00861872785565L260.2140605433656,61.181669925164016L261.10926281059267,25.805673028831336L262.13979675489924,-7.4840426947594665L262.84553467421495,1.4960125111511786L263.603168377138,2.2578030684592534L264.14941623735,21.55883270765554L264.84374603182096,19.938714171130158L265.20164798773385,48.957439929701906L265.8071733593939,44.294328872214464L266.6292294143813,22.19387653462246L267.21976764163753,29.57221951437114L268.11787786225636,6.580776243604049L268.6037297674081,29.536602973343435L269.3922325140286,16.33034452896709L270.30107979332485,-2.321499444245603" fill="none"></path></g><g><path style="fill: none;" stroke="rgb(255, 112, 67)" stroke-width="2px" d="M15.179618069736009,66.4629293460085L15.340002883729461,110.23897585436745L15.420083446364966,139.6127055616197L15.43999174266262,152.57170396187803L15.480032023980371,159.15998042048898L15.500387697722916,162.74810887302326L15.520072305298124,164.8523043383477L15.580915637803312,166.0156349904222L15.601271311545855,166.70100080220166L15.6216269852884,167.10777297675932L15.702602302813684,167.37026978268014L15.884013856717019,167.48718870016796L15.904145841737119,167.5971104514773L15.944633500499762,167.66297154832498L16.025385129302602,167.7024551595367L16.0656490993428,167.70618704817727L16.276587564608946,152.51104661537818L16.44838050344712,145.0907394483757L16.9335613424315,142.33409944478305L17.2822920607241,140.24151233647459L17.4227685784199,140.52147602075712L17.88535685643728,141.1480920604311L18.007490898892545,142.70056672448328L18.121124769894877,144.3897933431465L18.248179964243946,144.20687937664795L18.352195220181123,146.1510257741198L18.8801006051526,136.19059434805507L18.987694880648906,141.02220366834854L19.408229678846524,132.1960365808852L19.73459152489457,133.52064994063275L19.882226081708623,135.8508505114727L19.99049142337227,140.75853211070657L20.223798760882968,132.5562941482508L20.67318940427606,132.95911697673174L20.904259854562305,128.07605227784006L21.05771031815995,132.0656340042945L21.210266026867803,134.53914607949324L21.473771341908652,139.23370414860193L21.81556770980544,138.95963198723527L22.502515776435697,142.06546143558091L22.643215982853942,141.59589819166416L22.848114852614057,135.591182756926L23.06531660210868,130.89161553527114L23.31204526296611,125.43970318025114L23.489206731142982,128.37011164537483L24.95324941954905,113.17877003241598L27.407785770943974,110.58457016034404L28.04574600735866,120.25465944232099L28.2443815928903,123.34477792372357L29.744214476887656,118.55860008055589L30.57342857099328,110.62195775337487L31.19080944494297,102.45011311161717L31.448498853200235,107.3977091230971L31.697464401282122,111.14395243165069L32.74410393360481,109.86219685559233L32.96913478838503,114.75629983797405L33.22525837558517,114.92100538193219L33.87529780301192,116.85437160041496L34.183093485096975,111.5735477804656L34.87294950511903,114.16791478898679L35.93658938034758,119.25403655528527L36.38553264629578,116.68243558031135L36.81993614528503,112.96593793523743L37.10402082279086,111.35420196223416L37.40555322064745,108.83178593238365L37.6160443084687,115.43419814863614L38.48037753199827,117.46139761380383L38.969584767986674,118.63783652099707L39.587860396826144,118.8053018377945L39.79208820041893,121.97664610535483L40.04396170189261,119.63208656089591L40.48082577682875,122.43283616730838L40.84230675230075,110.13486086673451L41.060179567962706,115.55799972329828L41.63170425381106,122.24168266865401L42.19226819225958,118.55478479214727L42.43720734333746,118.19713086565851L43.02640343825901,116.86586016146694L43.290132442022305,115.50875780412586L44.04933196600248,120.3576527177353L45.322120796717606,122.19019208950996L45.61403457950904,116.19083029694198L45.82027558160382,120.22849818590645L46.27660057539273,122.35198856591839L46.86803355753874,123.7856074029088L47.34605635740486,124.00767722646225L47.539547102320256,126.05522507787057L47.933910319991746,125.98760892412643L48.421104357478136,122.11842731732747L48.71122863049,116.30729756396966L50.44034245499404,119.1816986764708L51.42725709842376,121.24533199059945L52.41596125163306,121.74570552795973L52.66000564782114,120.19144637231454L53.00247308188526,110.4849856588163L54.19495766124245,109.6462817868294L55.02417175534807,110.85796004002295L55.718725238541474,105.86198950606402L55.903044745836596,115.98538044056323L56.62824358400504,118.90878685861229L56.88436717120519,117.4124975943151L57.32906035142693,120.60256553174867L57.561920311492734,120.50259688581032L57.8397417047701,116.43453726740401L58.38442374392499,118.36071143843124L59.34606156171837,115.82738824952466L59.57959258795152,117.577667837261L59.75049077189991,124.2112288527483L60.46584730628076,120.53414011158179L61.34628611782641,110.49119500013217L62.83605300931371,113.51850312078659L63.40176178837849,115.235184542057L64.00080018708765,113.25414795384444L64.32067506018477,108.33661753748665L66.58597075239076,107.45992985393144L67.90148412909299,93.25460557545158L68.15268656439933,102.45868340081496L68.7217506743008,79.64541111271679L69.07719205426676,85.00080690420596L69.8176017255615,84.0264994319653L71.77666755673955,90.56074075020734L72.57545998459258,73.42391544705214L73.30088251148348,81.98577252726257L74.3506536859204,78.08975349517222L77.40064941646536,79.60069589777808L78.40344595918872,66.62854276875038L80.41955241459037,67.28016042210905L83.37962527871224,55.188257716536526L84.41463299746775,47.474482652197L84.81637794297995,61.57052451726699L87.11052948038142,75.83089170870656L87.4749184092452,81.91446765282187L87.96300720162137,74.53741091662963L88.51261039267008,86.32295863593225L88.96580374434473,80.29325135588506L89.23646709850384,92.94703142808962L91.00293693965628,104.08874293990573L91.15168994008258,118.0920025508263L92.46608487317258,72.03593209732743L93.85631028317161,65.47960182663617L95.50802780970949,60.44906570187676L95.86145599117343,73.6624646526388L96.62557666704741,44.97939555392597L97.44002730547163,23.28289879419745L98.5754712606052,20.614217747765792L99.3648687621155,52.25414215822826L99.96345978337979,46.890512823371324L100.28221621286468,68.61813991032503L102.37236363539581,47.217141710708916L102.88371605490633,51.64518174239453L104.01938369876233,61.70000305175931L107.78540702985548,46.516002655648464L109.2463180761473,32.95882484668056L111.00137979245501,31.62429474491978L112.17999567102058,-17.193609027857377L113.8467003419623,-1.059455308981228L114.50367411978486,9.697832977381523L117.67065905216884,2.911588857248688L118.24106529440496,19.797509028147232L119.89323019838773,-1.5174097874347865L121.70018769830283,-11.474780630746068L122.21198749525821,16.3901475656142L122.7369849268379,31.93260497727107L124.10551253075973,42.95303809334328L124.36610989240877,71.44023453066477L124.98035912424425,95.13292055307917L125.12329621788695,113.23696676029525L125.40939409389479,126.99079456716987L125.50893557538305,136.2201853765634L125.87779827869576,124.7683523995112L126.45066509687878,126.0330533120424L126.5332062354612,137.16103277627417L126.7110387698054,135.3430867234691L126.99154442775209,135.727930472666L127.08773057840368,141.7615772732278L127.49529143069947,145.3618249676112L127.63464950478303,143.6933609090118L127.72255917270412,147.27864122547527L127.85968035956324,145.0428575659747L128.103053689584,144.21984501183925L128.2204902688679,144.96236042540917L128.49674584108814,131.24997961419288L128.8689638752375,114.46799623825798L130.97409844217253,118.79598394620709L131.23514318126647,116.90612127047568L131.59550571312624,126.81934559297497L132.64125049055914,100.18419281613237L134.3743907120672,110.7042772412353L134.95016548364202,83.99454671023557L136.27507378668696,94.2505371946461L136.65176559528524,91.86951698204095L136.9025206531467,101.66751253802983L137.4456368712445,101.72362741327193L138.36633965283033,95.17686856434929L140.80879681321318,72.88343938390362L144.57459645558387,72.90752509792385L144.87344458877112,86.0030674879493L145.48165422510053,66.28242077571898L145.7456069175863,85.13875378672341L146.5133066130194,93.06263625516989L146.88530095844632,91.57552908744393L148.20081433514855,91.87970620027524L149.23336147795715,86.93745568883242L152.13080149979427,86.18552321396359L152.49944051438453,87.74837161608687L152.74907712863373,99.29452876957963L152.99670054438096,106.40168957796612L153.4762891653042,109.48948503548478L153.76193966386717,109.128745999353L154.06145886322173,107.6759803922997L155.16245475509868,108.57904124096049L155.563752323166,98.27314348514027L155.84291584877803,102.97721986857215L156.50369233488217,93.85519347126994L157.32507732370217,82.28012520712431L157.75366491590785,80.06102722328961L159.02779587895765,96.37708080297938L160.47908831018432,118.27071130849173L160.76675200724927,131.90540686741033L160.9038731941084,135.81891695113575L161.2206164250913,128.6752539981275L161.815404738074,123.73101436172811L163.3552779033891,95.7787851201133L167.51790133937817,102.61722510516186L168.389392602026,111.16706210343061L168.66072702235246,111.41149519740203L168.95890408937237,109.16527222685112L169.55861355424884,111.06787155964717L169.8113818106123,124.19378567994741L169.952305705753,130.852952352707L170.45247368914121,122.88403822169383L172.09994112995264,109.82730329993991L172.29633982825982,117.28777114049777L173.86037137559904,109.06183278040056L174.30797250921256,107.81529745586515L174.56342503024538,110.81622663188173L174.78331104440934,115.7873526660958L175.07858015803748,112.05001628952677L175.37608615889002,109.60820756134086L175.78230487885114,98.45194565826435L176.04849445856132,104.24106181400617L176.55693892468005,86.1187633858323L176.94593361301284,85.89371473440801L177.24791338831432,93.51561282378064L178.0391003996042,84.8680734500535L179.034067837042,81.43433117411023L179.12085906135084,110.02292683565655L179.3199420243274,117.16585758777596L179.7212395923947,118.91914898908423L180.8047877639209,126.73101659887399L181.50336764411833,114.98700963688569L182.2907519471266,91.56929756833757L184.15788171337957,94.48819892529728L184.51623104673732,93.64725001029484L184.88509375005,92.20546882928588L185.66442525905026,81.01112197587477L186.19143588913198,91.2839813265164L186.64731350547598,97.806629969483L187.10386218798732,108.26076463606961L187.31569540814326,114.97194153377181L187.67158416555412,127.05468606666403L187.9690901664067,127.94325306120656L188.20597652347652,124.54807637090342L188.51220638450448,116.32935790849652L188.6019055622051,130.7007140555059L188.8094886966346,128.81478308261495L189.1105737170463,119.34801537651947L189.67337454271927,107.64586691362038L189.86283889063063,116.59707192274709L191.45102881999398,96.24430453868493L191.6805334492231,106.18675064333881L192.52026091328366,90.53650979855848L193.09089084424224,72.3525196856255L193.62886222172375,64.3534676077183L195.12824772827625,62.88413101991523L195.7067067645204,85.8515957927566L196.40953673044427,84.77626043924751L196.9090336476652,99.22616111850778L197.61857427526243,93.10010998806493L198.3010485674438,89.8232931142882L198.55672477719904,100.00108211962798L198.93744298280137,94.96091090444843L199.60694332908088,108.56734260544737L200.41602543816637,116.67138046818573L200.60951618308178,121.65344702290467L201.00589259925528,124.46322043944521L201.62372085064987,128.20297619102925L202.73120371547776,112.97878530963385L204.42385627822316,101.8302598510442L207.3805738115083,92.64855829783437L207.79574008036724,87.47852849118253L208.8540114262571,91.8542694413595L209.1392145473752,98.58749741478518L209.51210364769187,94.81068423939843L210.13194509758847,70.53007250075086L210.51243961446835,77.29824399772191L210.93521129989043,77.59035766056697L212.12590636946803,50.28735716315066L212.62674541902362,54.424525888574934L215.4194991187562,-6.68403278485269L216.6455370064802,-44.40602213663871L217.20542987876138,25.505522715621197L217.3494854160163,77.72190509256797L219.34478882023055,44.882595810628004L220.52250994390633,42.12859693224499L220.97794018280544,53.57722743142824L221.29468341378833,72.80963367009605L222.13329243423667,93.88072794912456L222.25900549625104,114.02108449734038L222.4305747463668,122.01745769093495L222.7184621321542,116.44612269037862L222.86967570852738,125.28708311291189L223.1915637801265,132.56578724224605L223.40339700028247,129.55495509747766L223.5745188729533,131.37766082292464L224.47553704696392,98.09353552832727L225.0025476770456,80.77516971725416L225.2519606025724,95.13054801623366L225.78657664921724,78.31939495944991L226.25923091974468,73.75627370901023L226.82851871836857,62.40402339032639L228.2775742623708,15.51188584797518L228.60706775053308,48.833809985772234L230.11472973981603,33.47212009196224L231.4407564864732,73.74790020556907L231.7908293371005,99.20951313832227L231.99214918730146,110.4784024671309L232.09616444323862,125.91393631205105L232.6032667770227,108.89342629463881L233.11081648825163,100.05702973530313L233.43919153280166,99.66059976929127L234.0934810459549,97.18938509308751L234.42588248750894,97.58107995138025L234.61534683542027,110.55819974540302L235.32801910513177,123.26982149871381L235.82438438023843,133.76825424729162L235.90692551882086,141.80215333742373L236.07692894787945,146.4629674218428L236.22523457086086,143.55641801189586L236.3084467756106,147.6152296776483L236.39993546309083,149.3127109866598L236.48516086634257,150.88953970689283L236.6981125301107,140.4495031251435L237.4004951185897,108.56169423767795L237.5279976903837,122.67013890081222L238.6406253958278,97.93395647498652L239.21103163806393,106.1038038427751L239.44635217407665,111.58399258422804L239.93153301306103,92.59835545693274L240.35900216165447,86.35166882429691L241.24637532359594,70.14072545443527L242.41850422921055,78.79947825362584L242.82472294917167,79.96670807363533L244.05881363090373,71.27498269555065L244.5222966638109,70.3471958669562L245.4512759281272,28.293949238347523L246.2189756235603,45.65531375497898L246.8761730901053,71.62587084002745L247.78278348217708,90.31895246179967L248.15142249676734,90.22842916478852L248.66031434033093,99.38671498308925L250.55898421644872,64.94048486731229L250.82987125933028,83.7154311489923L251.27411706210708,79.526362472699L252.0351060958668,79.50550754497907L252.3115853568095,91.95592749998117L252.73167277756224,86.62425543607431L253.50317518127693,97.92213490371641L253.77227271437891,103.66394577981801L254.11317432738593,100.7080725690558L256.0861088593556,90.02105767810384L257.65998271048244,81.7144831722101L258.0637408544966,81.93505983433796L258.81444020702384,93.43359925955018L259.4924407247563,98.55800270178473L260.2666273931403,102.96867040362194L260.7128863944192,90.89884103053991L261.27702935242684,73.14820026694807L261.5866145442914,85.1903218927566L262.01207049438284,82.08631672343597L262.2813917162073,94.14251448569608L263.26226676413097,81.43554443995787L264.21629916536125,79.57422067029732L264.96051154493756,84.28010734549831L266.0427175841291,81.69971412541814L266.75002132450186,86.39291179945606L267.0296322275588,95.8092000852543L267.3537571863824,97.4907769191512L268.56905801542905,102.148868417751L268.8913934644731,114.85424574992007L269.01554070543034,126.7447801615242L269.3841797200206,127.35849571363369L269.8100830475569,130.87735318754986L270.05994335052856,135.341669726926L270.2890006023128,129.68505052819077L270.38160773340525,138.45490004586304L270.81109008050066,135.62088982961123L271.14282045588743,136.73212071723654L271.30790273305223,136.22235822229848L271.7671356802329,134.7798819910837L272.4811500822791,117.20409723572564L272.9913840581774,121.77367018118412L274.08768248688295,112.59088058569762L274.545573301729,118.06852835915981L274.8943040200216,108.6528979588052L275.1000976446715,115.7456195549317L275.43249908622556,108.71482062848676L275.95704914036037,122.20367556114834L277.01442573136046,122.89899199106884L277.5638052336867,128.16177018210362L277.8382712961274,121.3291515985467L278.1807387301915,111.16760879455559L278.6938806594816,89.85593890507324L278.9211484014862,102.55313816541627L280.19572674198093,89.75219062751634L281.29761738874765,79.20016392953899L282.1190023775677,43.19719720552422L283.37479086537695,42.31379918264963L283.6400856901974,70.6379369938059L283.87026138559384,90.76310743719647L284.17067533983817,96.57683266848328L284.72989714595207,76.99368982611038L285.6311390086851,83.31007068111985L285.96331676151675,89.27343321150725L286.365061707029,86.64989485285315L286.8014784045202,81.98496485287123L287.61413953316486,70.5317485125547L289.41237317290455,59.31275067360134L290.34962891995133,84.24716561248682" fill="none"></path></g></g></g></g><g opacity="0.2"><g><g><g><path style="fill: none;" stroke="rgb(0, 119, 187)" stroke-width="2px" d="M13.33284397722562,115.91583958128612L13.578901571915715,117.41139134811974L13.862538871976662,109.03629993249756L14.309021561977962,72.7442422026479L14.600040589879612,107.39119146762665L14.993285363938872,84.60895440754851L15.28743603395476,106.69327035247883L15.374003569541186,152.9556712928602L15.458334217903154,153.4541885484714L15.809972889587545,93.88137840462478L15.975055166752353,135.45771447989142L16.079741488856868,148.91768228308638L16.133203093521352,160.33372724641373L16.16944066655753,164.1723095441123L16.192256916246976,167.16341355320264L16.21261258998952,167.7117822491211L16.23520515095652,167.21326499350988L16.25779771192352,167.21326499350988L16.327588593326528,156.69455070994422L16.433617047765715,148.6185707887042L16.87338907609365,74.23979396948152L17.019681500573032,139.64526018770252L17.089025004531152,156.79425454140494L17.154118422762803,157.741437136897L17.445584828109343,107.29148953785835L17.734814346231428,107.79000679346956L17.782683732834776,161.58002038544174L17.871264466923208,152.50700690382553L18.078400223907778,126.08559235643168L18.297391483181965,123.44344938033835L18.455315721228516,137.05297197987818L18.763335092036026,103.60246488904329L18.93490434215176,134.0120174813268L19.141369032968992,126.23514525108413L19.335307155329275,129.02684492521473L19.465717680515027,143.18473384355752L19.6703928615527,126.63396057692702L19.854712368847824,131.17046684231204L20.085111752966732,120.90101213739817L20.293142264841087,125.88618469351022L20.465829958569046,133.7627588535212L20.565818817502198,149.96456775919296L20.747454060127982,131.76868983107636L20.88278573720753,142.0879955008744L21.0172226593973,142.28740316379583L21.144054165023924,143.9823606918585L21.253214261577348,147.92064777186397L21.341794995665786,152.50700690382553L21.5717470023398,121.00071406716648L21.870371446804597,105.69623584125642L21.992505489259862,145.02924806965746L22.192035829681284,127.78055178618672L22.34526260455648,138.09985745598476L22.422882591245088,154.949740315305L22.57454354506316,138.44881801355865L22.910300317453917,97.42084635540256L23.10446212853665,128.97699015694576L23.32926929459442,122.14730527642618L23.52477323801182,128.67788056425601L23.82630563586841,105.04816188760792L24.139693536014615,102.40601891151461L24.475450308405374,97.42084635540256L24.740968821948233,113.07429274565618L24.958617948887742,123.74255897302811L25.337546644710493,87.799469407522L25.70529090441096,90.29205568557803L26.068337700940074,91.33893735829979L26.396936434212574,99.01610765877412L26.657757484584074,114.12117822176275L26.98054031107299,100.31224795930147L27.266190809635944,108.58763744515534L27.63885622123022,89.19531163781765L27.883347994863193,117.76035190569365L28.136339939949103,115.86598861640196L28.46404391833182,99.21551151831075L28.67967984676932,124.19122526375517L28.881223385692756,127.33188549545969L29.146741899235614,113.07429274565618L29.35768036450176,125.23811073986172L29.621185679542606,113.52295523299841L29.984456164794167,91.28909019680044L30.3190944935727,97.67010498320815L30.63628510200047,101.55854109832948L30.90694845615958,111.92770153639648L31.30824602422688,82.81429685140996L31.580922576887993,111.47903524566942L31.898560562760665,101.45883916856117L32.19897451700503,105.29742051541352L32.43071603345861,120.60190254470842L32.769828136686044,96.67307047198575L33.12258525198266,93.63211977681918L33.42948617917795,103.85172351684888L33.71401823412868,108.83689607296094L34.12068433153467,81.61785087388127L34.3953740826978,111.03036895494238L34.73784151676192,95.92529458856893L35.076282553822026,96.82262717002304L35.31876112895299,118.20901819642071L35.557660684524826,119.00664504472167L35.79812606115379,118.65768448714775L36.11867200041825,100.81076521491268L36.46695534126596,94.62915428804159L36.83201533629708,90.89027487095755L37.074941288872935,118.10931626665239L37.27402425184947,127.88025371595505L37.58047780159986,103.9514254466172L37.829443349681746,116.76331739447124L38.08936964516347,114.32058588468419L38.409244518260586,100.96032191294996L38.75708048166341,94.7288562178099L39.1514436993349,84.35969577974289L39.405554088033035,115.61672998859638L39.74913996570938,95.67603596076334L40.08735731404704,96.87248193829201L40.62711820130813,51.95607416501457L41.052350462677104,77.48015613095434L41.44470048184659,84.80836587385478L41.832576726567154,85.80540038507719L42.14081978609712,103.5526101207743L42.56336778279674,78.07838292310352L42.8465577054128,109.1360056656507L43.23644714863537,85.35673029096533L43.78918198179831,49.06467256111566L44.26921798016644,65.26648336847981L44.73135888073893,69.25462141336946L44.97495589948212,117.9597595686151L45.37356920288008,83.41251603678947L45.69366776469964,100.91046714468098L46.08713622748135,84.55910724604918L46.67029272689688,42.28483484209542L47.247857008251266,43.531127981123404L47.69232649975056,73.19291229675977L48.04016246315338,94.7288562178099L48.52422485852553,64.36915839379537L49.0246165306362,60.72998090647965L49.512705323012376,63.47182581234128L49.85696226685606,95.52648686949568L50.32603751782437,67.7092224850365L50.62645147206873,105.29742051541352L51.02484108674423,83.46236319828881L51.77196141971235,5.743526091209787L52.20166745553023,76.48312161973193L52.75395491124827,49.1643820976536L53.1711343786092,79.27482129386254L53.576905721125414,81.81726234018755L54.25311672907829,21.54652917950071L54.91635379112932,24.437923176629965L55.4565620558353,51.856372235246255L55.92988739253007,66.76203513531343L56.453319003052634,55.59525165233029L56.920157366796474,68.20773974064772L57.30467828068036,86.553176268494L57.700831008131416,83.96088045390002L58.22403892993154,55.64510642059928L58.55554561659583,98.36803370512563L58.977869924573014,78.12823008460283L59.37558847308119,83.61191989632611L59.776662352426044,82.86414401290929L60.16073588886504,86.65287819826231L60.43743883853017,110.58170646760016L60.7145891656402,110.48200073444701L61.16912464964953,70.94958464650935L61.67577960598869,59.33413106941434L62.13635468550406,69.60358957771302L62.465624484943895,98.86655096073683L62.77923607381255,102.35617175001528L63.331523529530585,49.1643820976536L63.99833961114074,23.640292524944186L64.39493971603669,83.8611785241317L64.89555507686981,60.68012613821067L65.41496029038836,56.4925842337844L66.19116015727438,-0.7371982317359027L66.58977346067233,83.41251603678947L67.09307308617481,60.08190695283113L67.72432266091613,31.56671384645449L68.20816136756584,64.4190055552947L68.6231039477023,79.77333854947376L69.18277313126106,47.5192736327827L69.71828393279569,52.90326151473765L70.17192466191524,71.14898850604598L70.86021486088018,18.85452382836874L71.35367218259503,62.27537983481258L71.8746432171707,56.143623676210495L72.41932525632559,50.859337724023845L72.97183640076608,49.11452732938463L73.58429612282198,35.75427096442007L74.23500661641606,27.22962285076059L74.8423214978557,36.90085456691011L75.35792400309266,57.34006204696951L75.72029973345445,91.48849405633707L76.14240035270919,78.17808485287182L76.40143189330112,114.51998974422082L76.80563741476023,82.16622289776147L77.48296686632531,21.297270551695107L78.10705840194838,33.16197514982608L78.52356680314197,79.42437799189985L79.09665731004746,44.528162492345814L79.55767976700771,69.50388004117507L79.954950938071,83.7116218260944L80.38644648366844,76.08431390065869L80.89175930767293,59.63324446548893L81.43800716788493,50.51037716644993L81.96501779796664,54.79762100064451L82.3048009673614,96.52352138071811L82.65062373226222,95.17751870515212L83.07697443724342,77.23089750314874L83.65274920881825,43.92995091373595L84.10638993793779,71.14898850604598L84.61215013938717,59.53353492895096L84.89198473116653,109.8837815490675L85.2199123982717,99.16565675004176L85.7690682118755,49.862303212801436L86.11489097677632,95.17751870515212L86.61416420527478,60.97923953428524L87.11299005632831,61.07894146405357L87.57088087117434,70.20180876309253L87.97105999562942,83.06355547921557L88.56651937477945,39.542989936233795L88.94432962698997,88.04872803532761L89.64604114930162,15.863420294701541L90.25827718263508,35.80411051914973L90.80474873156953,50.460522398180956L91.30469302623531,60.829682836247954L91.66952933254399,90.94012203245688L92.31352916446471,28.725174617594206L92.58799522690539,111.08022372321136L93.03537267179647,72.54483834311127L93.69525440301082,25.185699060046773L94.11824977715534,77.97867338656556L94.49180994363938,88.99590777828104L94.91905540351037,77.03149364361212L95.30983960162273,85.15732643142869L95.55097604441903,118.50812778911046L95.78294124959507,120.55205157982425L96.10796096330843,99.81373070369027L96.22606860875968,145.92657874941915L96.56875973154625,95.8754474270696L96.75442137117605,130.8713572496223L96.99108403952343,119.50516230033287L97.28881372909845,105.89563970079304L97.54202936290679,115.8161376515178L97.83864060886958,106.14489832859864L98.18848977077441,94.28019373046769L98.54527328307505,92.73478719536509L98.8157129485117,111.97755250128064L99.07027071465474,115.51702425544323L99.31722306423461,117.21198368519828L99.62345292526255,104.00128021488618L100.00327637597508,87.60005794121574L100.3884683560263,86.40361957045671L100.75442310594721,90.69086340465128L101.163997156745,80.96977692023277L101.55276815635536,85.60598891877092L101.72075838691195,134.80964432962776L101.96189482970824,118.50812778911046L102.1596356603501,128.1793633086448L102.33992877064121,132.06779942376613L102.7696348064591,76.48312161973193L102.95171742652977,131.66898409792324L103.1159049488048,135.65712214281288L103.46821468665652,93.7318217065875L103.82343237790005,93.083747752939L104.13860978782581,102.00721119244136L104.36073268921425,122.7455244618057L104.57547386276195,124.3906329266766L104.93896803673597,91.23923542853147L105.3680030063865,76.63267831776923L105.52637462187795,136.95326624672504L105.70465453366704,132.51646571449317L106.06747764147372,91.38879212656876L106.37079954910986,104.64934656176503L106.69224024326411,100.61136135537605L106.81303215338471,145.32835766234723L107.48454569816622,22.593403245452805L108.13838783387455,26.531701735612756L108.44170974151069,104.64934656176503L108.96379921969857,55.89436504840488L109.29016106574662,99.51462491438532L109.63083899003118,96.32410991441184L110.16433659306381,53.35192400207988L110.73988767591618,43.97980568200495L111.2979910384178,47.86823419035662L111.77511908339415,65.91455732212832L112.46922518914266,17.55839113461107L113.17943688290725,13.969060808794666L113.55008909599951,89.64398173192954L114.02565131991874,66.26351787970223L114.71774422716524,18.007053621953304L114.97878896625919,114.07132725687859L115.2637683986548,108.7371903398078L115.6129464943923,94.42974282173532L116.35961944991551,5.8432356277477595L116.8300368332185,67.41010908896193L117.5147480126243,19.65215448005455L117.89032137761036,88.54724529093882L118.23569676506628,95.2772282416901L118.72423293488734,63.372123882572964L119.12306992700773,83.3626612685205L119.6391198096896,57.24036011720122L119.93550736692994,106.19475309686763L120.25515855130462,101.01017668121895L120.46341275190142,125.83633372862607L120.93204062542483,67.80892441480482L121.29799537534574,90.69086340465128L121.873993835643,43.88009614546698L122.04824735042808,133.41379449256246L122.51866473373106,67.41010908896193L122.77545938709854,115.01850699983203L123.2035996018593,76.83208978407549L123.64023998807299,74.937722691399L124.01022113499792,89.79353842996683L124.58510115168296,44.12935477327258L124.93852933314693,93.4825630787819L125.26712806641943,99.01610765877412L125.82858675975773,47.12045830693981L126.23771343311063,81.06948645677075L126.858449637897,33.909751033242884L127.11591535743182,114.86895410517955L127.37114418974218,115.36747136079076L127.83373246775956,69.15491948360115L128.04153929091146,125.93603565839439L128.36096678656372,101.06002384271828L128.59762945491107,119.50516230033287L129.06804683821406,67.41010908896193L129.59595222318555,54.59821714110788L129.99546028147327,83.21310457048321L130.35470436972082,92.1864151714849L130.6904611421116,97.42084635540256L130.91325510966732,122.59597156715324L131.36286944178286,72.04632108750008L131.91538058622336,49.11452732938463L132.14018775228112,122.14730527642618L132.4307594027379,107.49090100416461L133.04702183307535,34.90678554446529L133.4420561169142,84.21013908170562L134.081582174386,29.722209128816615L134.40279917981778,100.66120851687539L134.73609537626163,97.96921837928274L135.21210497762576,66.16381594993392L135.5738096418202,91.63805075437436L135.7737873596865,127.6808460530336L136.08829370344495,102.156760283709L136.35694385910202,112.37636782712353L136.7197669669087,91.38879212656876L137.09243237850296,89.19531163781765L137.50849340225167,79.52407992166813L138.01000351797458,60.48072227867404L138.3406154497491,98.56743756466226L138.6103840490184,112.12710919931793L138.99378651929007,86.80243489629959L139.2807791501877,108.28852404908075L139.87825172783974,39.09432744889156L140.24331172287086,90.89027487095755L141.0327092243812,-3.678446997134131L141.34989983280894,101.55854109832948L141.80018523109183,71.89676438946277L142.17598228480034,88.49739052266983L142.52381824820316,94.7288562178099L142.92198417415622,83.51221796655778L143.35191389869655,76.4332744582326L143.75164564570673,83.16325740898388L144.0462436931675,106.59356842271052L144.4886999861648,73.64157478410199L144.96023581307998,67.16085046115633L145.31142710731947,93.9810803343931L145.66552635495077,93.33300638074459L146.08091631253217,79.67363661970543L146.3455400711852,113.27369660519281L146.79000956268453,73.19291229675977L147.59506527476603,-7.168067786412564L148.35851488447267,2.104356210663724L148.70992986743462,93.93122556612413L149.18593946879872,66.16381594993392L150.05608859911186,-21.674922967406474L150.99893656421983,-37.876733774770656L151.65837091798926,25.285408596584745L151.94603461505423,108.13896735104346L152.57124459428954,32.912716522020474L152.96627887812835,84.21013908170562L153.41186681323987,72.94365366895416L153.7896770654504,88.04872803532761L154.16189509959977,89.29502117435563L154.70769558236688,50.61007909621824L155.21725849209784,58.686057115765834L155.75813782297118,51.70681553720898L156.38647944432068,32.21479540687264L156.66362977143072,110.48200073444701L156.75355263785383,152.20789540944338L157.12062583138697,90.44160477684568L157.2966688559516,133.01498297010437L157.48904115725475,129.37580548278865L157.57068754094738,154.0524096355433L157.86036443651435,107.69030486370123L158.09725079358418,119.45531133544871L158.25920142863478,136.15563939842409L158.44441569081965,130.97105917939058L158.5428387286957,150.31353021845928L158.74572439995382,127.03277590276993L158.83475251148715,152.4073030723648L158.94816269376702,146.97346422552573L159.145456146964,128.27906904179792L159.63488707167485,63.17271241626669L160.4401664724788,-7.217922554681536L161.05575783664892,35.056334635732924L161.78162774098473,10.479440019516232L162.15831954958298,88.29798666313322L162.53232709351195,88.89620584851272L163.11011506358875,43.48128842639372L163.46108266910585,94.03093510266207L163.9590137652696,61.27834532359017L164.52136721349768,46.92105444740318L164.88799302958594,90.54131431338364L165.42976711534902,51.50741167767234L165.7916954682659,91.58819598610538L166.42249766556236,31.666423382992434L166.78062331019765,92.4356737992905L167.21346098812978,75.78520050458411L167.61431117875222,82.91399878117828L168.1889675067148,44.17920954154155L168.80858526788896,34.159009661048486L169.33112212352174,55.79465551186692L169.85768537615854,54.89733053718247L170.2598776991156,82.61488538510368L170.53255425177673,111.47903524566942L171.04972257807083,56.991101489395604L171.38301877451468,97.96921837928274L171.67359042497145,107.49090100416461L172.20015367760826,54.89733053718247L172.5245023251543,99.96328740172756L173.0481576243993,55.54539688406133L173.60201090117445,48.815413933310055L174.18650953292465,41.98573665956013L174.65513740644806,67.80892441480482L175.02869757293212,88.99590777828104L175.27587361123443,117.16213272031413L175.62124899869036,95.2772282416901L175.90376785513908,109.28555856030316L176.87547166544252,-44.307603329447375L177.51902411991833,28.824868940592864L178.4638852835283,-38.32539626211289L179.09670067932672,31.21776089565023L179.48636643382687,85.40658505923429L179.88676924700437,83.01370071094658L180.34376530696065,70.40121262262917L180.87099962576477,54.74777383914518L181.53669726376268,23.88955115274979L182.10844563833348,44.82727588842039L182.66565424594535,48.06763804989325L183.10855791638753,73.54187285433369L183.78253203711594,22.045046435111914L184.42720293520398,28.575610312787262L185.2986941978518,-21.974036363481076L186.17756718834036,-23.61913722158235L186.63724751296593,69.80299343724964L187.26491806814812,32.36434449814027L188.25630648602677,-48.69456430694953L188.7806328514391,55.395847792793674L189.4378303179841,25.78392585219595L190.0670666942234,32.01539154733601L190.8405822964401,-0.13897143958669744L191.3705008799136,54.14955465376568L192.03239580962992,24.73703657270454L192.73433102066406,15.813580739971854L193.29534233655747,47.220160236708125L194.04156791463578,5.942929950746418L194.63904049228785,39.09432744889156L195.19110425928343,49.214229259152944L195.42060888851256,121.10041980031963L196.25228355856507,-13.10042008547805L196.65179161685282,83.21310457048321L196.93878424775045,108.28852404908075L197.51657221782727,43.48128842639372L198.17801977009873,24.836730895703226L198.64821346467926,67.4599638572309L198.8953895029816,117.16213272031413L199.56712673648556,22.54356369072312L200.10778237863644,51.75667030547794L200.3046284543885,128.37877097156627L201.02602458427538,11.476474530738642L201.6505634973433,33.062265613288105L202.14133655438883,62.873606626961745L202.58916137672483,72.44513641334296L203.18551551076465,39.343586076697136L203.85054208259524,24.039115457556733L204.32878857118382,65.6652986943227L204.9005369457546,44.82727588842039L205.35283554253948,71.44810190212056L205.88812265535168,52.95310867623698L206.4088700012049,56.193470837709825L206.839694480635,76.23386299192633L207.56377487519123,10.878247738589465L207.93442708828348,89.64398173192954L208.55874231262897,33.11212038155708L209.24255873714503,19.85155833959115L209.91429597064896,22.54356369072312L210.33169912673236,79.22496652559356L210.91172398403364,42.98277117078254L211.6040405800026,17.957198853684304L212.16281500867154,47.71867749231933L212.57238905946934,80.96977692023277L213.12601864752207,48.865268701579026L213.69239849275417,46.023721865949085L214.30172657269583,36.45219207956788L214.5820085419201,109.78407581591436L214.9647399460244,86.95198398756725L215.5315671687014,45.92401993618077L216.08877577631327,48.06763804989325L216.71241993449144,33.26168468636402L217.68703169818664,-44.955684889865495L218.05746022255644,89.69382889342887L218.61041874444183,49.01482539961631L219.00097925383176,85.20717359292803L219.9330901602623,-35.483857033252576L220.59587984486848,24.537632713167937L221.19514193230006,38.6955197298183L221.74631094440588,49.4136407254592L222.40708743051002,24.98629520051017L223.24524907351343,-14.546132297582005L226.07692461095155,-15.692715900072045L226.71891124437028,29.17383710493644L227.69039136595126,-44.257748561178374L228.24088931188973,49.56318981672686L228.65605558074867,79.72348378120478L229.38617557081088,9.532260276562795L230.0104907951564,33.11212038155708L230.77550622592017,1.7553880463201494L231.3262278605811,49.51334265522752L231.96217489849377,30.519839780502394L232.4860538864612,55.49554972256199L233.05936808208915,44.47832293761613L233.80984374589391,4.99575020779298L234.65784769268495,-16.739605179563455L235.31347933817284,26.13287880300021L235.99394043185217,20.599334223007986L236.74285027459985,5.344718372136526L237.55931411152605,-9.710508832737588L239.2432428140961,-21.27611524833324L239.94159900557108,16.611196178118348L240.51826853203568,43.73054705419935L241.43315540683795,-31.645268079630597L242.34491063952598,-30.94734696448276L242.7904985746375,72.94365366895416L243.15153217266462,91.78760745241165L243.72663587807207,44.07950000500361L244.4489267628487,11.277070671202011L245.25152189898333,-6.619695762532388L246.02212954780825,0.5090949072921376L246.62340483374186,38.24685724247607L247.35173531402455,9.931067995636056L247.93466812471763,42.33468961036439L248.60640535822156,22.54356369072312L249.40877680563372,-6.569856207802701L249.9514456462866,51.30800021136608L250.87013522937048,-32.492753499585376L251.41593571213758,50.61007909621824L252.08409392608237,23.341179128869612L252.5236422656879,74.28964873775048L252.93478213754278,80.62081636265886L253.9666582141841,-57.7177144626809L255.1175366911664,-84.23883854661273L255.85906480607335,6.989819230237799L256.4815905206393,33.51094331416962L257.50474273710523,-55.773500208505055L258.40687935472806,-28.803713637231L258.86544123574146,70.05225206505526L259.50295409471124,30.17087161615885L259.69666852834905,129.0766958900989L260.2140605433656,56.94124672112662L261.10926281059267,-27.258322315667698L262.13979675489924,-57.41861628014564L262.84553467421495,14.966095320017075L263.603168377138,3.400488904421394L264.14941623735,50.51037716644993L264.84374603182096,17.50853636634207L265.20164798773385,92.48552856755948L265.8071733593939,37.299662285983345L266.6292294143813,-10.9568019717656L267.21976764163753,40.63973398399415L268.11787786225636,-27.906388662546533L268.6037297674081,63.97034306795247L269.3922325140286,-3.479043137597529L272.6245345533667,-134.2899831808092L273.39737908941606,0.010577651680932831L274.3869779975151,-48.295741374336984L282.73280423195826,-24.965139897148333L283.4559898716247,11.07766681166541L284.561683226673,-74.16878389785069L285.13276053507644,44.976832586457704L286.0458579000992,-31.246460360557364L288.1250445752305,-109.71305813751388L288.74712291235153,33.61063763716831L289.7416429723444,-49.39248542209734" fill="none"></path></g><g><path style="fill: none;" stroke="rgb(255, 112, 67)" stroke-width="2px" d="M15.179618069736009,66.4629293460085L15.340002883729461,136.50460375938283L15.420083446364966,167.81148608058183L15.43999174266262,167.81148608058183L15.480032023980371,167.76163416485144L15.500387697722916,167.7117822491211L15.520072305298124,167.86133752088907L15.580915637803312,167.7117822491211L15.601271311545855,167.7117822491211L15.6216269852884,167.7117822491211L15.702602302813684,167.76163416485144L15.884013856717019,167.66193080881385L15.904145841737119,167.76163416485144L15.944633500499762,167.76163416485144L16.025385129302602,167.76163416485144L16.0656490993428,167.7117822491211L16.276587564608946,129.72476604036257L16.44838050344712,133.9621627130578L16.9335613424315,138.19955938575305L17.2822920607241,137.10282294476235L17.4227685784199,140.9414061933071L17.88535685643728,142.0879955008744L18.007490898892545,145.02924806965746L18.121124769894877,146.92361326064156L18.248179964243946,143.93250972697433L18.352195220181123,149.06723707943127L18.8801006051526,121.24997269497209L18.987694880648906,148.2696102311303L19.408229678846524,118.95679407983751L19.73459152489457,135.50756924816042L19.882226081708623,139.34615059501277L19.99049142337227,148.120053533093L20.223798760882968,120.25293818374968L20.67318940427606,133.56335119059975L20.904259854562305,120.75145543936088L21.05771031815995,138.0500064911006L21.210266026867803,138.24941415402205L21.473771341908652,146.27554120868547L21.81556770980544,138.5485237467118L22.502515776435697,146.72420559772013L22.643215982853942,140.89155332673053L22.848114852614057,126.58410961204288L23.06531660210868,123.84226470618125L23.31204526296611,117.26183465008245L23.489206731142982,132.7657243422988L24.95324941954905,90.39175761534635L27.407785770943974,106.69327035247883L28.04574600735866,134.75979336474362L28.2443815928903,127.97995564572335L29.744214476887656,111.37933331590112L30.57342857099328,98.71699426269954L31.19080944494297,90.19234614904008L31.448498853200235,114.8191031402954L31.697464401282122,116.76331739447124L32.74410393360481,107.93956349150685L32.96913478838503,122.09745431154204L33.22525837558517,115.16806369786931L33.87529780301192,119.75442092813847L34.183093485096975,103.65231205054262L34.87294950511903,118.05946530176823L35.93658938034758,126.88321920473264L36.38553264629578,112.82503411785058L36.81993614528503,107.39119146762665L37.10402082279086,108.93659800272926L37.40555322064745,105.04816188760792L37.6160443084687,125.33781647301487L38.48037753199827,120.50219681155528L38.969584767986674,120.40249488178696L39.587860396826144,119.05649981299064L39.79208820041893,126.73366250669534L40.04396170189261,116.11524724420758L40.48082577682875,126.63396057692702L40.84230675230075,91.68789791587369L41.060179567962706,123.69270800814397L41.63170425381106,132.26720708668756L42.19226819225958,113.0244379773872L42.43720734333746,117.66064997592534L43.02640343825901,114.86895410517955L43.290132442022305,113.47310426811426L44.04933196600248,127.63099508814943L45.322120796717606,124.93900114717198L45.61403457950904,107.19178760809002L45.82027558160382,126.28500001935312L46.27660057539273,125.5372241359363L46.86803355753874,125.93603565839439L47.34605635740486,124.34078196179246L47.539547102320256,129.12654685498308L47.933910319991746,125.88618469351022L48.421104357478136,116.31465490712901L48.71122863049,107.59060293393293L50.44034245499404,123.49330034522251L51.42725709842376,124.34078196179246L52.41596125163306,122.4962658340001L52.66000564782114,117.8600576388468L53.00247308188526,95.92529458856893L54.19495766124245,108.38822597884906L55.02417175534807,112.67547741981329L55.718725238541474,98.36803370512563L55.903044745836596,131.17046684231204L56.62824358400504,123.29389648568588L56.88436717120519,115.16806369786931L57.32906035142693,125.38766743789901L57.561920311492734,120.35264391690282L57.8397417047701,110.33244783979455L58.38442374392499,121.24997269497209L59.34606156171837,112.02740346616478L59.57959258795152,120.20308721886552L59.75049077189991,134.16157037597927L60.46584730628076,115.01850699983203L61.34628611782641,95.42677733295773L62.83605300931371,118.05946530176823L63.40176178837849,117.81020667396263L64.00080018708765,110.28259307152557L64.32067506018477,100.96032191294996L66.58597075239076,106.14489832859864L67.90148412909299,71.94661915773176L68.15268656439933,116.26480013886004L68.7217506743008,45.42550268056959L69.07719205426676,93.03390059143966L69.8176017255615,82.56503822360436L71.77666755673955,100.36210272757044L72.57545998459258,47.71867749231933L73.30088251148348,94.8285581475782L74.3506536859204,72.24572494703669L77.40064941646536,81.86710950168688L78.40344595918872,47.17031307520881L80.41955241459037,68.25758690214705L83.37962527871224,37.05040365817774L84.41463299746775,35.9038200556877L84.81637794297995,82.71458731487199L87.11052948038142,97.22144249586593L87.4749184092452,91.03983156899484L87.96300720162137,63.47182581234128L88.51261039267008,104.00128021488618L88.96580374434473,71.24869043581428L89.23646709850384,111.92770153639648L91.00293693965628,120.80131020762987L91.15168994008258,139.09689196720717L92.46608487317258,2.951826417079161L93.85631028317161,55.64510642059928L95.50802780970949,52.90326151473765L95.86145599117343,93.4825630787819L96.62557666704741,1.9547919058567516L97.44002730547163,-9.261846345395327L98.5754712606052,16.611196178118348L99.3648687621155,99.71402877392195L99.96345978337979,38.84506882108596L100.28221621286468,101.20958054075557L102.37236363539581,15.115644411284734L102.88371605490633,58.28724178992296L104.01938369876233,76.7822350158065L107.78540702985548,23.74000206148216L109.2463180761473,12.623058133228682L111.00137979245501,29.622499592278643L112.17999567102058,-90.42046468702313L113.8467003419623,23.14177526933298L114.50367411978486,25.833765406925636L117.67065905216884,-7.267777322950536L118.24106529440496,45.12638928449499L119.89323019838773,-33.48978801080776L121.70018769830283,-26.410836895712976L122.21198749525821,58.187539860154644L122.7369849268379,55.24629109475637L124.10551253075973,59.48368776745163L124.36610989240877,114.1710291866469L124.98035912424425,130.67194958670083L125.12329621788695,140.39303607111933L125.40939409389479,147.6215362774818L125.50893557538305,150.06427159065368L125.87779827869576,107.59060293393293L126.45066509687878,127.93010468083921L126.5332062354612,153.85300197262188L126.7110387698054,132.61616764426148L126.99154442775209,136.30519609646137L127.08773057840368,150.81204747407048L127.49529143069947,150.76219650918634L127.63464950478303,141.1906648211127L127.72255917270412,152.6565617001704L127.85968035956324,141.6891820767239L128.103053689584,142.9853261806361L128.2204902688679,146.07613354576404L128.49674584108814,110.68140839736847L128.8689638752375,89.29502117435563L130.97409844217253,125.28796550813071L131.23514318126647,114.07132725687859L131.59550571312624,141.6891820767239L132.64125049055914,60.231463650868434L134.3743907120672,126.48440387888974L134.95016548364202,43.92995091373595L136.27507378668696,109.6345229212619L136.65176559528524,88.29798666313322L136.9025206531467,116.36450587201317L137.4456368712445,101.80779972613509L138.36633965283033,85.35673029096533L140.80879681321318,39.44329561323511L144.57459645558387,72.94365366895416L144.87344458877112,105.64638107298744L145.48165422510053,36.70145070737348L145.7456069175863,113.4232533032301L146.5133066130194,104.9484599578396L146.88530095844632,89.34486833585495L148.20081433514855,92.3359718695222L149.23336147795715,79.52407992166813L152.13080149979427,85.05762450166037L152.49944051438453,90.09264421927176L152.74907712863373,116.61376449981879L152.99670054438096,117.06243079054582L153.4762891653042,114.12117822176275L153.76193966386717,108.58763744515534L154.06145886322173,105.4968319817198L155.16245475509868,109.93363251395165L155.563752323166,82.81429685140996L155.84291584877803,110.03333444371998L156.50369233488217,80.17215387531664L157.32507732370217,64.9175228109059L157.75366491590785,76.73238024753753L159.02779587895765,120.85116117251401L160.47908831018432,151.11115706676026L160.76675200724927,152.35745020578827L160.9038731941084,141.6891820767239L161.2206164250913,117.9597595686151L161.815404738074,116.31465490712901L163.3552779033891,53.850441257691074L167.51790133937817,112.87488508273474L168.389392602026,123.99181760083371L168.66072702235246,111.7781448383592L168.95890408937237,105.79593777102473L169.55861355424884,113.9217705588413L169.8113818106123,143.88265686039776L169.952305705753,140.8417023618464L170.45247368914121,110.93066702517407L172.09994112995264,90.24220091730906L172.29633982825982,128.47847290133456L173.86037137559904,96.72292524025472L174.30797250921256,105.94549446906201L174.56342503024538,115.3176203959066L174.78331104440934,123.2440417174169L175.07858015803748,106.44401172467322L175.37608615889002,105.94549446906201L175.78230487885114,81.7175528036496L176.04849445856132,112.9247360476189L176.55693892468005,58.93531574357145L176.94593361301284,85.55614175727159L177.24791338831432,104.9484599578396L178.0391003996042,71.89676438946277L179.034067837042,76.28371776019532L179.12085906135084,152.90582032797602L179.3199420243274,127.88025371595505L179.7212395923947,121.54908609104666L180.8047877639209,138.44881801355865L181.50336764411833,97.37099919390322L182.2907519471266,56.44272946551543L184.15788171337957,98.86655096073683L184.51623104673732,92.38582663779117L184.88509375005,90.04279705777243L185.66442525905026,64.21960169575807L186.19143588913198,106.69327035247883L186.64731350547598,107.59060293393293L187.10386218798732,123.94196663594957L187.31569540814326,125.0387068803251L187.67158416555412,145.17880286600234L187.9690901664067,129.27610355302036L188.20597652347652,119.45531133544871L188.51220638450448,104.00128021488618L188.6019055622051,152.25774827601992L188.8094886966346,125.98588662327853L189.1105737170463,105.14786381737623L189.67337454271927,90.09264421927176L189.86283889063063,130.02387943643714L191.45102881999398,65.71515346259169L191.6805334492231,121.10041980031963L192.52026091328366,67.06114853138801L193.09089084424224,45.07653451622602L193.62886222172375,52.354889490857474L195.12824772827625,60.68012613821067L195.7067067645204,120.30279295201865L196.40953673044427,83.16325740898388L196.9090336476652,120.90101213739817L197.61857427526243,83.91103329240069L198.3010485674438,84.9080678036231L198.55672477719904,115.26776562763763L198.93744298280137,87.40065408167912L199.60694332908088,128.97699015694576L200.41602543816637,128.8274372622933L200.60951618308178,129.12654685498308L201.00589259925528,128.67788056425601L201.62372085064987,133.81260981840535L202.73120371547776,90.14249898754075L204.42385627822316,85.10747166315971L207.3805738115083,78.87600596801964L207.79574008036724,79.72348378120478L208.8540114262571,98.41788086662497L209.1392145473752,108.68733937492364L209.51210364769187,89.14546447631834L210.13194509758847,34.109154892779486L210.51243961446835,87.45050124317846L210.93521129989043,78.02852815483453L212.12590636946803,9.332856417026193L212.62674541902362,60.63027897671134L215.4194991187562,-98.34687079499412L216.6455370064802,-100.9890061643178L217.20542987876138,130.37283999401106L217.3494854160163,156.04647865798813L219.34478882023055,-4.376368112281938L220.52250994390633,37.997598614670466L220.97794018280544,70.75017318020308L221.29468341378833,101.6582430280978L222.13329243423667,125.48736936766733L222.25900549625104,144.2316193196641L222.4305747463668,134.0120174813268L222.7184621321542,108.08912018954413L222.86967570852738,138.5485237467118L223.1915637801265,143.4838434362473L223.40339700028247,125.0387068803251L223.5745188729533,134.11171941109512L224.47553704696392,48.16734758643122L225.0025476770456,54.79762100064451L225.2519606025724,116.66361546470293L225.78657664921724,53.10266537427428L226.25923091974468,66.91159183335073L226.82851871836857,45.37564791230059L228.2775742623708,-54.826320465551646L228.60706775053308,98.81669619246784L230.11472973981603,10.42958525124726L231.4407564864732,134.16157037597927L231.7908293371005,137.4019325374521L231.99214918730146,127.38173646034384L232.09616444323862,149.06723707943127L232.6032667770227,83.3626612685205L233.11081648825163,86.80243489629959L233.43919153280166,99.06595482027346L234.0934810459549,93.4825630787819L234.42588248750894,98.16862223881935L234.61534683542027,130.02387943643714L235.32801910513177,142.33725412868L235.82438438023843,149.5159033701583L235.90692551882086,153.85300197262188L236.07692894787945,153.4541885484714L236.22523457086086,139.19659389697546L236.3084467756106,153.703447176277L236.39993546309083,151.85893295017706L236.48516086634257,153.25478278724236L236.6981125301107,124.7894482525195L237.4004951185897,60.72998090647965L237.5279976903837,143.83280589551362L238.6406253958278,60.829682836247954L239.21103163806393,118.358574894458L239.44635217407665,119.80427569640744L239.93153301306103,64.11989976598977L240.35900216165447,76.98163887534315L241.24637532359594,45.824310399642826L242.41850422921055,91.78760745241165L242.82472294917167,81.7175528036496L244.05881363090373,58.237394628423615L244.5222966638109,68.95551562406453L245.4512759281272,-34.785920704565484L246.2189756235603,71.69736052992616L246.8761730901053,110.58170646760016L247.78278348217708,118.358574894458L248.15142249676734,90.09264421927176L248.66031434033093,113.12414371054034L250.55898421644872,13.27113969364683L250.82987125933028,111.87785057151233L251.27411706210708,73.24275945825909L252.0351060958668,79.47422515339917L252.3115853568095,110.63155743248431L252.73167277756224,78.62674734021405L253.50317518127693,114.86895410517955L253.77227271437891,112.2766620939704L254.11317432738593,96.27426275291249L256.0861088593556,73.99053534167591L257.65998271048244,69.25462141336946L258.0637408544966,82.26592482752977L258.81444020702384,110.68140839736847L259.4924407247563,106.2446078651366L260.2666273931403,109.58467195637775L260.7128863944192,72.79409697091688L261.27702935242684,46.52223912156032L261.5866145442914,103.25350433146937L262.01207049438284,77.43030896945501L262.2813917162073,112.22681112908624L263.26226676413097,62.375089371350555L264.21629916536125,76.7822350158065L264.96051154493756,91.33893735829979L266.0427175841291,77.8291242952979L266.75002132450186,93.43270831051292L267.0296322275588,109.93363251395165L267.3537571863824,100.01314216999653L268.56905801542905,109.1360056656507L268.8913934644731,133.91231174817366L269.01554070543034,144.58058177893042L269.3841797200206,128.27906904179792L269.8100830475569,136.15563939842409L270.05994335052856,142.03814453599023L270.2890006023128,121.20012173008793L270.38160773340525,151.60967432237146L270.81109008050066,131.3698745052335L271.14282045588743,138.3989670486745L271.30790273305223,135.45771447989142L271.7671356802329,132.61616764426148L272.4811500822791,90.84042010268857L272.9913840581774,128.62802959937184L274.08768248688295,98.81669619246784L274.545573301729,126.28500001935312L274.8943040200216,94.52945235827328L275.1000976446715,126.38470194912142L275.43249908622556,98.16862223881935L275.95704914036037,142.43695796014072L277.01442573136046,123.94196663594957L277.5638052336867,136.05593746865577L277.8382712961274,111.08022372321136L278.1807387301915,95.92529458856893L278.6938806594816,57.88843407084971L278.9211484014862,121.59893705593083L280.19572674198093,70.55076932066645L281.29761738874765,63.372123882572964L282.1190023775677,-10.807252880497941L283.37479086537695,40.988702148337694L283.6400856901974,113.12414371054034L283.87026138559384,120.95086310228234L284.17067533983817,105.29742051541352L284.72989714595207,47.618975562551014L285.6311390086851,92.78464196363406L285.96331676151675,98.21847700708834L286.365061707029,82.71458731487199L286.8014784045202,74.98756985289832L287.61413953316486,53.35192400207988L289.41237317290455,42.48425391517131L290.34962891995133,121.64878802081498" fill="none"></path></g></g></g></g></g></g><g transform="translate(39, 178)" clip-path="url(#clip_1)"><clipPath id="clip_1"><rect width="290" height="21"></rect></clipPath><g><g><line x1="13.079852032139712" y1="0" x2="13.079852032139712" y2="5" style="visibility: inherit;" fill="rgb(0, 0, 0)" stroke="rgb(204, 204, 204)" stroke-width="1px"></line><line x1="35.44872427669385" y1="0" x2="35.44872427669385" y2="5" style="visibility: inherit;" fill="rgb(0, 0, 0)" stroke="rgb(204, 204, 204)" stroke-width="1px"></line><line x1="57.81759652124799" y1="0" x2="57.81759652124799" y2="5" style="visibility: inherit;" fill="rgb(0, 0, 0)" stroke="rgb(204, 204, 204)" stroke-width="1px"></line><line x1="80.18646876580213" y1="0" x2="80.18646876580213" y2="5" style="visibility: inherit;" fill="rgb(0, 0, 0)" stroke="rgb(204, 204, 204)" stroke-width="1px"></line><line x1="102.55534101035626" y1="0" x2="102.55534101035626" y2="5" style="visibility: inherit;" fill="rgb(0, 0, 0)" stroke="rgb(204, 204, 204)" stroke-width="1px"></line><line x1="124.9242132549104" y1="0" x2="124.9242132549104" y2="5" style="visibility: inherit;" fill="rgb(0, 0, 0)" stroke="rgb(204, 204, 204)" stroke-width="1px"></line><line x1="147.29308549946455" y1="0" x2="147.29308549946455" y2="5" style="visibility: inherit;" fill="rgb(0, 0, 0)" stroke="rgb(204, 204, 204)" stroke-width="1px"></line><line x1="169.66195774401868" y1="0" x2="169.66195774401868" y2="5" style="visibility: inherit;" fill="rgb(0, 0, 0)" stroke="rgb(204, 204, 204)" stroke-width="1px"></line><line x1="192.03082998857283" y1="0" x2="192.03082998857283" y2="5" style="visibility: inherit;" fill="rgb(0, 0, 0)" stroke="rgb(204, 204, 204)" stroke-width="1px"></line><line x1="214.39970223312696" y1="0" x2="214.39970223312696" y2="5" style="visibility: inherit;" fill="rgb(0, 0, 0)" stroke="rgb(204, 204, 204)" stroke-width="1px"></line><line x1="236.76857447768106" y1="0" x2="236.76857447768106" y2="5" style="visibility: inherit;" fill="rgb(0, 0, 0)" stroke="rgb(204, 204, 204)" stroke-width="1px"></line><line x1="259.1374467222352" y1="0" x2="259.1374467222352" y2="5" style="visibility: inherit;" fill="rgb(0, 0, 0)" stroke="rgb(204, 204, 204)" stroke-width="1px"></line><line x1="281.50631896678937" y1="0" x2="281.50631896678937" y2="5" style="visibility: inherit;" fill="rgb(0, 0, 0)" stroke="rgb(204, 204, 204)" stroke-width="1px"></line></g><g transform="translate(0, 8)"><text style="text-anchor: middle; visibility: inherit; font-family: &quot;Helvetica Neue&quot;, sans-serif; font-size: 12px; font-weight: 200;" x="13.079852032139712" y="0" dx="0em" dy="0.95em" fill="rgb(50, 49, 63)" stroke="none" stroke-width="1px">0</text><text style="text-anchor: middle; visibility: hidden; font-family: &quot;Helvetica Neue&quot;, sans-serif; font-size: 12px; font-weight: 200;" x="35.44872427669385" y="0" dx="0em" dy="0.95em" fill="rgb(50, 49, 63)" stroke="none" stroke-width="1px">100k</text><text style="text-anchor: middle; visibility: inherit; font-family: &quot;Helvetica Neue&quot;, sans-serif; font-size: 12px; font-weight: 200;" x="57.81759652124799" y="0" dx="0em" dy="0.95em" fill="rgb(50, 49, 63)" stroke="none" stroke-width="1px">200k</text><text style="text-anchor: middle; visibility: hidden; font-family: &quot;Helvetica Neue&quot;, sans-serif; font-size: 12px; font-weight: 200;" x="80.18646876580213" y="0" dx="0em" dy="0.95em" fill="rgb(50, 49, 63)" stroke="none" stroke-width="1px">300k</text><text style="text-anchor: middle; visibility: inherit; font-family: &quot;Helvetica Neue&quot;, sans-serif; font-size: 12px; font-weight: 200;" x="102.55534101035626" y="0" dx="0em" dy="0.95em" fill="rgb(50, 49, 63)" stroke="none" stroke-width="1px">400k</text><text style="text-anchor: middle; visibility: hidden; font-family: &quot;Helvetica Neue&quot;, sans-serif; font-size: 12px; font-weight: 200;" x="124.9242132549104" y="0" dx="0em" dy="0.95em" fill="rgb(50, 49, 63)" stroke="none" stroke-width="1px">500k</text><text style="text-anchor: middle; visibility: inherit; font-family: &quot;Helvetica Neue&quot;, sans-serif; font-size: 12px; font-weight: 200;" x="147.29308549946455" y="0" dx="0em" dy="0.95em" fill="rgb(50, 49, 63)" stroke="none" stroke-width="1px">600k</text><text style="text-anchor: middle; visibility: hidden; font-family: &quot;Helvetica Neue&quot;, sans-serif; font-size: 12px; font-weight: 200;" x="169.66195774401868" y="0" dx="0em" dy="0.95em" fill="rgb(50, 49, 63)" stroke="none" stroke-width="1px">700k</text><text style="text-anchor: middle; visibility: inherit; font-family: &quot;Helvetica Neue&quot;, sans-serif; font-size: 12px; font-weight: 200;" x="192.03082998857283" y="0" dx="0em" dy="0.95em" fill="rgb(50, 49, 63)" stroke="none" stroke-width="1px">800k</text><text style="text-anchor: middle; visibility: hidden; font-family: &quot;Helvetica Neue&quot;, sans-serif; font-size: 12px; font-weight: 200;" x="214.39970223312696" y="0" dx="0em" dy="0.95em" fill="rgb(50, 49, 63)" stroke="none" stroke-width="1px">900k</text><text style="text-anchor: middle; visibility: inherit; font-family: &quot;Helvetica Neue&quot;, sans-serif; font-size: 12px; font-weight: 200;" x="236.76857447768106" y="0" dx="0em" dy="0.95em" fill="rgb(50, 49, 63)" stroke="none" stroke-width="1px">1M</text><text style="text-anchor: middle; visibility: hidden; font-family: &quot;Helvetica Neue&quot;, sans-serif; font-size: 12px; font-weight: 200;" x="259.1374467222352" y="0" dx="0em" dy="0.95em" fill="rgb(50, 49, 63)" stroke="none" stroke-width="1px">1.1M</text><text style="text-anchor: middle; visibility: hidden; font-family: &quot;Helvetica Neue&quot;, sans-serif; font-size: 12px; font-weight: 200;" x="281.50631896678937" y="0" dx="0em" dy="0.95em" fill="rgb(50, 49, 63)" stroke="none" stroke-width="1px">1.2M</text></g><line x1="0" y1="0" x2="290.011999130249" y2="0" fill="rgb(0, 0, 0)" stroke="rgb(204, 204, 204)" stroke-width="1px"></line></g></g></g></g></svg>