<svg viewBox="0 0 330 200" xmlns="http://www.w3.org/2000/svg"><g><g><g><g><g><line x1="69.97600173950195" y1="173.01277120540746" x2="64.97600173950195" y2="173.01277120540746" style="visibility: inherit;" fill="rgb(0, 0, 0)" stroke="rgb(204, 204, 204)" stroke-width="1px"></line><line x1="69.97600173950195" y1="161.32591979181143" x2="64.97600173950195" y2="161.32591979181143" style="visibility: inherit;" fill="rgb(0, 0, 0)" stroke="rgb(204, 204, 204)" stroke-width="1px"></line><line x1="69.97600173950195" y1="149.63906837821543" x2="64.97600173950195" y2="149.63906837821543" style="visibility: inherit;" fill="rgb(0, 0, 0)" stroke="rgb(204, 204, 204)" stroke-width="1px"></line><line x1="69.97600173950195" y1="137.9522169646194" x2="64.97600173950195" y2="137.9522169646194" style="visibility: inherit;" fill="rgb(0, 0, 0)" stroke="rgb(204, 204, 204)" stroke-width="1px"></line><line x1="69.97600173950195" y1="126.2653655510234" x2="64.97600173950195" y2="126.2653655510234" style="visibility: inherit;" fill="rgb(0, 0, 0)" stroke="rgb(204, 204, 204)" stroke-width="1px"></line><line x1="69.97600173950195" y1="114.57851413742736" x2="64.97600173950195" y2="114.57851413742736" style="visibility: inherit;" fill="rgb(0, 0, 0)" stroke="rgb(204, 204, 204)" stroke-width="1px"></line><line x1="69.97600173950195" y1="102.89166272383136" x2="64.97600173950195" y2="102.89166272383136" style="visibility: inherit;" fill="rgb(0, 0, 0)" stroke="rgb(204, 204, 204)" stroke-width="1px"></line><line x1="69.97600173950195" y1="91.20481131023533" x2="64.97600173950195" y2="91.20481131023533" style="visibility: inherit;" fill="rgb(0, 0, 0)" stroke="rgb(204, 204, 204)" stroke-width="1px"></line><line x1="69.97600173950195" y1="79.51795989663931" x2="64.97600173950195" y2="79.51795989663931" style="visibility: inherit;" fill="rgb(0, 0, 0)" stroke="rgb(204, 204, 204)" stroke-width="1px"></line><line x1="69.97600173950195" y1="67.83110848304331" x2="64.97600173950195" y2="67.83110848304331" style="visibility: inherit;" fill="rgb(0, 0, 0)" stroke="rgb(204, 204, 204)" stroke-width="1px"></line><line x1="69.97600173950195" y1="56.14425706944729" x2="64.97600173950195" y2="56.14425706944729" style="visibility: inherit;" fill="rgb(0, 0, 0)" stroke="rgb(204, 204, 204)" stroke-width="1px"></line><line x1="69.97600173950195" y1="44.45740565585126" x2="64.97600173950195" y2="44.45740565585126" style="visibility: inherit;" fill="rgb(0, 0, 0)" stroke="rgb(204, 204, 204)" stroke-width="1px"></line><line x1="69.97600173950195" y1="32.77055424225526" x2="64.97600173950195" y2="32.77055424225526" style="visibility: inherit;" fill="rgb(0, 0, 0)" stroke="rgb(204, 204, 204)" stroke-width="1px"></line><line x1="69.97600173950195" y1="21.083702828659256" x2="64.97600173950195" y2="21.083702828659256" style="visibility: inherit;" fill="rgb(0, 0, 0)" stroke="rgb(204, 204, 204)" stroke-width="1px"></line><line x1="69.97600173950195" y1="9.396851415063225" x2="64.97600173950195" y2="9.396851415063225" style="visibility: inherit;" fill="rgb(0, 0, 0)" stroke="rgb(204, 204, 204)" stroke-width="1px"></line></g><g transform="translate(59.97600173950195, 0)"><text style="text-anchor: end; visibility: hidden; font-family: &quot;Helvetica Neue&quot;, sans-serif; font-size: 12px; font-weight: 200;" x="0" y="173.01277120540746" dx="0em" dy="0.3em" fill="rgb(50, 49, 63)" stroke="none" stroke-width="1px">0</text><text style="text-anchor: end; visibility: inherit; font-family: &quot;Helvetica Neue&quot;, sans-serif; font-size: 12px; font-weight: 200;" x="0" y="161.32591979181143" dx="0em" dy="0.3em" fill="rgb(50, 49, 63)" stroke="none" stroke-width="1px">2e-4</text><text style="text-anchor: end; visibility: hidden; font-family: &quot;Helvetica Neue&quot;, sans-serif; font-size: 12px; font-weight: 200;" x="0" y="149.63906837821543" dx="0em" dy="0.3em" fill="rgb(50, 49, 63)" stroke="none" stroke-width="1px">4e-4</text><text style="text-anchor: end; visibility: hidden; font-family: &quot;Helvetica Neue&quot;, sans-serif; font-size: 12px; font-weight: 200;" x="0" y="137.9522169646194" dx="0em" dy="0.3em" fill="rgb(50, 49, 63)" stroke="none" stroke-width="1px">6e-4</text><text style="text-anchor: end; visibility: inherit; font-family: &quot;Helvetica Neue&quot;, sans-serif; font-size: 12px; font-weight: 200;" x="0" y="126.2653655510234" dx="0em" dy="0.3em" fill="rgb(50, 49, 63)" stroke="none" stroke-width="1px">8e-4</text><text style="text-anchor: end; visibility: hidden; font-family: &quot;Helvetica Neue&quot;, sans-serif; font-size: 12px; font-weight: 200;" x="0" y="114.57851413742736" dx="0em" dy="0.3em" fill="rgb(50, 49, 63)" stroke="none" stroke-width="1px">1e-3</text><text style="text-anchor: end; visibility: hidden; font-family: &quot;Helvetica Neue&quot;, sans-serif; font-size: 12px; font-weight: 200;" x="0" y="102.89166272383136" dx="0em" dy="0.3em" fill="rgb(50, 49, 63)" stroke="none" stroke-width="1px">1.2e-3</text><text style="text-anchor: end; visibility: inherit; font-family: &quot;Helvetica Neue&quot;, sans-serif; font-size: 12px; font-weight: 200;" x="0" y="91.20481131023533" dx="0em" dy="0.3em" fill="rgb(50, 49, 63)" stroke="none" stroke-width="1px">1.4e-3</text><text style="text-anchor: end; visibility: hidden; font-family: &quot;Helvetica Neue&quot;, sans-serif; font-size: 12px; font-weight: 200;" x="0" y="79.51795989663931" dx="0em" dy="0.3em" fill="rgb(50, 49, 63)" stroke="none" stroke-width="1px">1.6e-3</text><text style="text-anchor: end; visibility: hidden; font-family: &quot;Helvetica Neue&quot;, sans-serif; font-size: 12px; font-weight: 200;" x="0" y="67.83110848304331" dx="0em" dy="0.3em" fill="rgb(50, 49, 63)" stroke="none" stroke-width="1px">1.8e-3</text><text style="text-anchor: end; visibility: inherit; font-family: &quot;Helvetica Neue&quot;, sans-serif; font-size: 12px; font-weight: 200;" x="0" y="56.14425706944729" dx="0em" dy="0.3em" fill="rgb(50, 49, 63)" stroke="none" stroke-width="1px">2e-3</text><text style="text-anchor: end; visibility: hidden; font-family: &quot;Helvetica Neue&quot;, sans-serif; font-size: 12px; font-weight: 200;" x="0" y="44.45740565585126" dx="0em" dy="0.3em" fill="rgb(50, 49, 63)" stroke="none" stroke-width="1px">2.2e-3</text><text style="text-anchor: end; visibility: hidden; font-family: &quot;Helvetica Neue&quot;, sans-serif; font-size: 12px; font-weight: 200;" x="0" y="32.77055424225526" dx="0em" dy="0.3em" fill="rgb(50, 49, 63)" stroke="none" stroke-width="1px">2.4e-3</text><text style="text-anchor: end; visibility: inherit; font-family: &quot;Helvetica Neue&quot;, sans-serif; font-size: 12px; font-weight: 200;" x="0" y="21.083702828659256" dx="0em" dy="0.3em" fill="rgb(50, 49, 63)" stroke="none" stroke-width="1px">2.6e-3</text><text style="text-anchor: end; visibility: hidden; font-family: &quot;Helvetica Neue&quot;, sans-serif; font-size: 12px; font-weight: 200;" x="0" y="9.396851415063225" dx="0em" dy="0.3em" fill="rgb(50, 49, 63)" stroke="none" stroke-width="1px">2.8e-3</text></g><line x1="69.97600173950195" y1="0" x2="69.97600173950195" y2="178.61999988555908" fill="rgb(0, 0, 0)" stroke="rgb(204, 204, 204)" stroke-width="1px"></line></g></g><g transform="translate(69, 0)" clip-path="url(#clip_0)"><clipPath id="clip_0"><rect width="260" height="178"></rect></clipPath><g><g><g><line x1="3.3474721970934134" y1="0" x2="3.3474721970934134" y2="178.61999988555908" fill="rgb(0, 0, 0)" stroke="rgb(60, 60, 60)" stroke-width="1px" opacity="0.25"></line><line x1="25.58841945741429" y1="0" x2="25.58841945741429" y2="178.61999988555908" fill="rgb(0, 0, 0)" stroke="rgb(60, 60, 60)" stroke-width="1px" opacity="0.25"></line><line x1="47.82936671773517" y1="0" x2="47.82936671773517" y2="178.61999988555908" fill="rgb(0, 0, 0)" stroke="rgb(60, 60, 60)" stroke-width="1px" opacity="0.25"></line><line x1="70.07031397805605" y1="0" x2="70.07031397805605" y2="178.61999988555908" fill="rgb(0, 0, 0)" stroke="rgb(60, 60, 60)" stroke-width="1px" opacity="0.25"></line><line x1="92.31126123837691" y1="0" x2="92.31126123837691" y2="178.61999988555908" fill="rgb(0, 0, 0)" stroke="rgb(60, 60, 60)" stroke-width="1px" opacity="0.25"></line><line x1="114.55220849869781" y1="0" x2="114.55220849869781" y2="178.61999988555908" fill="rgb(0, 0, 0)" stroke="rgb(60, 60, 60)" stroke-width="1px" opacity="0.25"></line><line x1="136.79315575901867" y1="0" x2="136.79315575901867" y2="178.61999988555908" fill="rgb(0, 0, 0)" stroke="rgb(60, 60, 60)" stroke-width="1px" opacity="0.25"></line><line x1="159.03410301933957" y1="0" x2="159.03410301933957" y2="178.61999988555908" fill="rgb(0, 0, 0)" stroke="rgb(60, 60, 60)" stroke-width="1px" opacity="0.25"></line><line x1="181.27505027966046" y1="0" x2="181.27505027966046" y2="178.61999988555908" fill="rgb(0, 0, 0)" stroke="rgb(60, 60, 60)" stroke-width="1px" opacity="0.25"></line><line x1="203.5159975399813" y1="0" x2="203.5159975399813" y2="178.61999988555908" fill="rgb(0, 0, 0)" stroke="rgb(60, 60, 60)" stroke-width="1px" opacity="0.25"></line><line x1="225.7569448003022" y1="0" x2="225.7569448003022" y2="178.61999988555908" fill="rgb(0, 0, 0)" stroke="rgb(60, 60, 60)" stroke-width="1px" opacity="0.25"></line><line x1="247.9978920606231" y1="0" x2="247.9978920606231" y2="178.61999988555908" fill="rgb(0, 0, 0)" stroke="rgb(60, 60, 60)" stroke-width="1px" opacity="0.25"></line></g><g><line x1="0" y1="173.01277120540746" x2="260.02399826049805" y2="173.01277120540746" fill="rgb(0, 0, 0)" stroke="rgb(60, 60, 60)" stroke-width="1px" opacity="0.25"></line><line x1="0" y1="161.32591979181143" x2="260.02399826049805" y2="161.32591979181143" fill="rgb(0, 0, 0)" stroke="rgb(60, 60, 60)" stroke-width="1px" opacity="0.25"></line><line x1="0" y1="149.63906837821543" x2="260.02399826049805" y2="149.63906837821543" fill="rgb(0, 0, 0)" stroke="rgb(60, 60, 60)" stroke-width="1px" opacity="0.25"></line><line x1="0" y1="137.9522169646194" x2="260.02399826049805" y2="137.9522169646194" fill="rgb(0, 0, 0)" stroke="rgb(60, 60, 60)" stroke-width="1px" opacity="0.25"></line><line x1="0" y1="126.2653655510234" x2="260.02399826049805" y2="126.2653655510234" fill="rgb(0, 0, 0)" stroke="rgb(60, 60, 60)" stroke-width="1px" opacity="0.25"></line><line x1="0" y1="114.57851413742736" x2="260.02399826049805" y2="114.57851413742736" fill="rgb(0, 0, 0)" stroke="rgb(60, 60, 60)" stroke-width="1px" opacity="0.25"></line><line x1="0" y1="102.89166272383136" x2="260.02399826049805" y2="102.89166272383136" fill="rgb(0, 0, 0)" stroke="rgb(60, 60, 60)" stroke-width="1px" opacity="0.25"></line><line x1="0" y1="91.20481131023533" x2="260.02399826049805" y2="91.20481131023533" fill="rgb(0, 0, 0)" stroke="rgb(60, 60, 60)" stroke-width="1px" opacity="0.25"></line><line x1="0" y1="79.51795989663931" x2="260.02399826049805" y2="79.51795989663931" fill="rgb(0, 0, 0)" stroke="rgb(60, 60, 60)" stroke-width="1px" opacity="0.25"></line><line x1="0" y1="67.83110848304331" x2="260.02399826049805" y2="67.83110848304331" fill="rgb(0, 0, 0)" stroke="rgb(60, 60, 60)" stroke-width="1px" opacity="0.25"></line><line x1="0" y1="56.14425706944729" x2="260.02399826049805" y2="56.14425706944729" fill="rgb(0, 0, 0)" stroke="rgb(60, 60, 60)" stroke-width="1px" opacity="0.25"></line><line x1="0" y1="44.45740565585126" x2="260.02399826049805" y2="44.45740565585126" fill="rgb(0, 0, 0)" stroke="rgb(60, 60, 60)" stroke-width="1px" opacity="0.25"></line><line x1="0" y1="32.77055424225526" x2="260.02399826049805" y2="32.77055424225526" fill="rgb(0, 0, 0)" stroke="rgb(60, 60, 60)" stroke-width="1px" opacity="0.25"></line><line x1="0" y1="21.083702828659256" x2="260.02399826049805" y2="21.083702828659256" fill="rgb(0, 0, 0)" stroke="rgb(60, 60, 60)" stroke-width="1px" opacity="0.25"></line><line x1="0" y1="9.396851415063225" x2="260.02399826049805" y2="9.396851415063225" fill="rgb(0, 0, 0)" stroke="rgb(60, 60, 60)" stroke-width="1px" opacity="0.25"></line></g></g></g><g><g><line x1="0" y1="173.01277120540746" x2="260.02399826049805" y2="173.01277120540746" fill="rgb(0, 0, 0)" stroke="rgb(153, 153, 153)" stroke-width="1.5px"></line></g></g><g><g><line x1="25.58841945741429" y1="0" x2="25.58841945741429" y2="178.61999988555908" fill="rgb(0, 0, 0)" stroke="rgb(153, 153, 153)" stroke-width="1.5px"></line></g></g><g><g><g><g><g><path style="fill: none;" stroke="rgb(0, 119, 187)" stroke-width="2px" d="M29.11783537815461,-23.150165124564893L29.22459192500415,5.859122971764862L29.253505156442568,24.547981498189927L29.402519503086715,33.69931170778358L29.611584407333734,39.99274326884253L30.069747920896347,50.14362597731929L30.77923413850058,57.955179017340654L30.89488706425425,54.17683258979524L30.910455727336473,62.196409338253716L31.008315895281886,62.228933019763474L31.575460050420066,47.62389398241393L31.671096123639447,61.985779366256466L31.677768407817542,53.81103717448694L31.98914166946204,56.204810326468234L32.078105458503316,68.00823332928357L32.34277273090114,66.91573009410317L32.94550240165584,73.8193090767621L33.12787816919047,70.61450867347251L33.341391262889545,62.36131532522339L33.34361535761558,73.33754345933536L33.786210208095966,81.91285965021733L34.571315646385294,83.39253850638244L34.99834183378345,93.5466137252776L35.03392734939997,96.26627671972713L35.16514893823586,93.55688305744093L35.8612905874839,93.78889646780861L35.86573877693597,99.0837052172506L35.976943513237565,106.28210064486203L36.13485423878584,108.44152998738724L36.31278181686841,108.76312530720372L36.61303460488275,107.00146823845918L37.415932800980336,116.16196194156322L37.600532663241,114.95601686535593L37.80514937803595,114.56362152189136L37.84295898837849,117.04298166229171L38.21438280762585,120.7434634497889L38.46348141694145,122.17932480950917L38.87049075180531,124.40028993409743L39.23301819214854,119.7741906081583L39.702302179341316,122.72487739164526L39.733439505505764,126.61927047319026L40.543009985781445,125.74390925381833L40.856607342151975,120.02472505393226L40.952243415371356,116.0033138362585L41.13684327763202,124.13799204323439L41.60390317009875,122.18831835006688L41.64616096989336,128.2175170432544L42.43571459763475,128.4232564549116L42.71372643838877,131.42252008454076L42.74041557510115,129.79780880580924L43.05846112092374,126.64863562001878L43.30755973023933,128.3637541926159L43.7279136334594,119.65575910369523L44.23278313626868,121.92433844419304L44.406262524899184,124.37264769327462L44.41293480907728,120.2398827098427L44.51969135592682,117.5939888971752L45.158006542298025,116.57490593499043L45.235849857709155,121.94999410134857L45.58725682442222,106.6206291274268L45.75406392887463,114.93163460368L46.00761072764229,117.817795382719L46.098798611409606,120.41751860051818L46.41462006250616,117.83378250477529L46.71487285052049,107.98969883075655L46.737113797780815,114.56837712729364L46.94395460730179,118.21176447059369L47.56002884641268,108.53820131660216L47.686802245796514,120.47538724904813L47.815799739906375,115.92337776802688L48.40963303175695,107.70434132462744L48.87224473477161,109.06370968496377L49.063516881210376,106.13202142294921L49.09243011264879,108.89177009495779L49.38378652175899,94.73649231920673L50.66931327340554,94.26625650072076L50.94287692470749,105.36051748798452L51.12080450279006,107.72132485195274L51.21644057600943,106.69188094158955L51.40548862772216,110.9483245182129L51.790257015325714,103.02344860895688L52.06159657190163,99.24022889333833L52.068268856079726,98.12849870795212L52.20393863436768,101.16974719453624L52.32403974957341,108.06237132751912L52.506415517108046,101.71803505803852L53.46277624930184,90.32443757117633L53.53839546998693,90.03177660279742L53.80306274238475,75.76024147743955L53.96764575211113,76.21137998496782L54.43470564457786,92.83461785437285L54.445826118208025,102.11214273609392L54.868404116154124,99.09891825676364L55.14864005163417,84.32010147183507L56.454183655815,87.1603202748245L56.80336652780204,86.43918693577177L56.863417085404905,96.78976249176229L57.94210302753047,86.22322596842379L58.055531858558105,87.71632688168576L58.10668603725684,77.1348963158222L58.52926403520294,78.26886891321965L59.44336696760213,78.51937442305405L59.60572588260247,90.49532674061469L59.703586050547884,91.723236045819L59.94601237568538,92.7513224955339L60.37081446835751,89.26936708937126L60.437537310138474,95.68859938066382L60.68441182472804,86.0793738575217L60.893476728975045,85.90137155297681L62.2279335645943,83.3298991999467L62.30355278527939,83.11512023974247L62.82176685644487,93.06638181674909L62.87514512986964,93.89119523213401L63.65802647343293,101.27433058117903L64.11396589226952,101.52125582265536L65.19932411857317,103.68896596927358L65.30608066542271,97.2851446218129L65.77091646316342,96.83763997629416L65.8398633996704,89.41963030922508L66.32916423939749,95.576873920417L66.37809432337018,104.54645464781169L66.83180964748072,99.08328564904674L66.86294697364518,92.71357491479705L68.85128765871787,93.92163075500545L70.33031065152919,92.22969749972266L70.4481876720089,88.82419769405892L71.2533099628325,93.71587654574414L71.49573628797,96.95148720184164L71.52687361413446,90.39580847405661L71.69812890803894,78.98087368683862L72.2852899157114,81.12763519320512L72.41428740982127,92.51398410654306L72.43430426235555,86.55333107368297L72.60333546153399,94.42683204347607L72.8390895024934,88.17593505371993L72.85688226030165,89.35729115206706L73.01479298584994,96.19718803091438L73.27501206879568,83.32793635520437L73.49519744667286,80.6985907232005L73.4974215413989,65.20332030010685L73.58193714098812,73.95266339481083L74.02898018092056,76.64128918502605L74.03565246509866,71.32684366256997L74.19801138009899,83.44207650927451L74.69843269345621,87.59975268660656L74.84077475592227,83.21396950620314L75.0364950918131,85.88492296155269L75.22999133297789,90.5871791091074L75.68370665708844,79.67885670710982L76.40653744304886,85.03001214693157L77.2895030492836,90.35370967781009L77.47855110099633,63.876892611220725L77.54082575332522,72.47038474494964L77.7943725520929,76.06589117285226L79.27561963963026,87.07119937949948L79.29786058689058,75.71423170316766L79.39572075483599,76.66608149792282L79.45354721771282,76.2070209111971L79.604785659083,85.93836741716525L79.77159276353541,81.88738159328709L79.91838301545353,86.44088119430779L80.16970571949516,94.794287725444L80.45883803387932,77.7912977931752L80.48330307586568,81.14523634686708L80.52778497038632,89.39374815709179L81.05489542045594,75.20106181274417L81.51973121819663,86.64691019902801L81.81998400621096,88.40293516756115L81.82443219566304,82.86993203249395L81.90894779525225,86.05353561933671L81.96010197395098,93.84574439999673L82.57395211833584,100.49648096019298L82.791913401487,99.19023824222089L82.80970615929523,102.60215591621767L83.19669864162482,103.46091746875389L83.27009376758389,86.79458427325518L83.43467677731026,84.14948615440854L83.97957998518812,83.65593035154102L84.15528346854467,75.54308678009123L84.28650505738055,84.54450818496149L85.22284893704006,82.75051861516772L85.30069225245119,62.951708931921715L85.46527526217756,54.39567741385939L85.98571342806908,72.55306679295737L86.31487944752182,83.51233776987455L86.68630326676917,94.24412465866249L87.41358224218166,80.50115410223886L87.41580633690769,73.89892021070966L87.48475327341468,79.10805126487926L88.18089492266273,62.806792805635155L88.20758405937512,81.80724409451989L88.21648043827925,67.77231627508367L88.21870453300528,64.88944010035608L88.47447542649898,81.92152580211751L88.9882413082124,91.8425031029972L89.20620259136354,74.62302404315845L89.28404590677464,65.05790193963824L89.69995162054265,61.66194186235191L89.90234424061157,67.26150246101588L91.06332168760032,67.27184333241462L91.29685163383368,58.54824078526151L92.24654008184939,72.38020280953165L92.30436654472622,53.29091410250669L92.45115679664434,59.192809277418135L92.7603059635628,66.14609216879902L92.8981998365768,71.056056136073L93.36081153959147,25.446103226191696L93.39639705520798,55.59139105600846L93.67218480123596,48.11818564860485L94.15703745151094,52.47229680071868L94.5484781232926,65.46352302377821L94.60630458616944,73.14097575289865L94.92435013199203,64.79116920669435L95.07781266808823,61.10514488145205L95.26463662507494,70.25816963465915L95.58268217089753,75.29226186029734L95.89850362199408,67.74156804008057L96.1075685262411,73.9376215659824L96.13870585240554,82.39021962661151L97.66443483446355,75.51931718949837L97.74672633932676,65.9893440476682L98.30942230501286,70.59898014653015L98.71865573460276,69.80592382916225L98.84320503926057,81.95964544987444L98.99444348063075,77.39132096863229L99.44593471001527,78.07292092572676L99.95302830755058,39.26551565248417L100.191006443236,45.01645007907189L100.44677733672971,51.4511940970789L100.68030728296307,71.29391926429497L100.97388778679931,82.43713864437531L100.99168054460756,72.40281905662417L101.2852610484438,85.2089658549154L101.60775478371845,75.81328576033218L101.61220297317051,76.46517951170436L101.8123714985134,66.15945648825969L101.96805812933565,59.43277994315068L102.04367735002073,71.46644768101972L102.10595200234964,35.87113808018765L102.82878278831006,25.09608910400695L102.84879964084435,56.143988776946415L102.87548877755673,41.545867229159114L102.91774657735135,36.87601393395681L102.9555561876939,54.024914653151086L103.07565730289963,52.939996799336186L103.102346439612,65.73526421351097L103.1579488077628,76.93151343604487L103.240240312626,85.7442239066758L103.51380396392794,78.86369355239951L103.74733391016132,74.46639067867831L104.2388588446144,80.79202829644072L104.28556483386109,87.90319041502836L104.60138628495764,88.36125666432706L104.76596929468401,72.28309539564778L105.17520272427392,47.97390742080364L106.39845482359156,52.173958150243294L106.44516081283824,29.05614470698262L106.49631499153698,39.97490755934632L106.73206903249638,40.73878694106057L106.93223755783927,58.63469903149337L107.37260831359362,62.27603131002172L107.54608770222413,64.47736109924548L107.77739355373146,61.85471589613459L107.815203164074,67.34041900465144L107.96421751071816,70.00298823907775L108.42905330845886,57.047333909887314L108.4935520555138,45.85094395007701L109.28088158852916,50.43434597019606L109.34760443031011,37.25883430858974L109.58780666072158,47.12054199742502L109.77240652298225,60.39515545080103L109.89917992236607,60.58287556192502L110.55528786654554,15.847261582542302L111.11798383223166,30.286985713674255L111.19360305291676,48.08308521818117L111.80522910257558,42.15153732578628L112.05432771189116,52.86334240304102L112.7571416453173,48.87006911715059L113.30649304264722,54.377056420242994L113.34207855826375,47.76644039637975L113.93146366066225,51.0494241324015L114.19835502778609,62.489502722675496L114.51195238415663,56.1873203665933L115.21254222285673,36.34068825837147L116.11552468162576,39.77601550307341L116.17779933395467,54.72735746091551L116.2912281649823,48.544930130170656L116.50696535340741,32.21480257214287L116.5759122899144,49.15763478147025L116.58703276354457,52.539001258254274L116.82278680450396,48.18615849380427L117.43663694888883,53.95227211706674L117.89035227299938,39.0775661447785L118.21729419772609,32.83267364075289L118.25287971334261,37.837566723738945L118.26177609224673,44.4331796167703L118.33517121820579,52.35045826702691L118.37965311272643,53.42451944389518L118.54201202772678,36.83572852170846L119.0913634250567,24.440354167043978L119.54507874916725,13.488280187235546L119.60512930677011,35.72025551601931L119.76081593759237,29.593033329544596L120.20118669334673,37.63230947870295L120.23677220896323,42.864376591934416L121.52452305533582,29.89160082483133L122.22733698876195,28.063964815619414L122.26737069383051,10.964318302812359L122.73443058629726,11.832984705053576L123.408331288285,16.5583647600169L124.06888742191651,29.886010881395038L124.60267015616422,24.071443128783756L124.68051347157534,26.607971948172832L124.80061458678107,20.04820260608426L124.8717856180141,31.29089294294019L125.03192043828841,31.01410084416125L125.09197099589127,39.80908169566689L125.10086737479541,43.49380552810473L125.24098534253542,37.00421745359665L125.65911515102945,29.289790188149965L125.83704272911201,28.94513353255479L126.1195027593181,44.23184568173326L126.13507142240033,54.01159387219889L126.23293159034574,51.067824412607436L126.35080861082542,39.15000603387941L126.97577922884045,27.031470107548927L127.48954511055386,39.50169426966656L127.8187111300066,61.06978103157519L128.58824790521373,61.37240022637782L128.608264757748,64.77379049019916L128.7261417782277,52.45033817037606L129.02639456624203,44.588903446759986L129.36223286987288,42.404650216430866L130.19626839213493,48.9619207052225L130.83013538905408,50.33112066707088L130.86572090467058,24.594399186694062L131.0414243880271,32.53311505277878L131.23269653446584,52.742969621553314L132.88297482118168,62.55595930692627L133.01642050474362,62.86386083725013L133.64806340693673,61.19738223243013L133.76594042741644,65.25871304428505L133.8348873639234,56.06167800049056L133.91495477406056,58.879679455694315L134.00169446837583,52.03141392200766L134.30861954056826,60.289708268101435L134.45318569776035,62.790715823174L134.50433987645908,66.7561736373489L134.74009391741848,45.872608419399796L134.97362386365182,20.574627032742285L135.0759322210493,15.888180099548094L135.7320401652288,34.09697627575369L136.4481986670111,33.644542674638785L137.40011120975285,44.13387302566966L137.57581469310938,39.65279244896155L137.85605062858943,57.58278585236533L139.0325967386604,43.3011896356052L139.143801474962,45.21170320409186L139.350642284483,35.30376026338212L139.38622780009948,36.49987562759003L139.45295064188048,31.28300630433216L139.61530955688082,36.53654338092579L140.4182077529784,54.84775384729069L140.84078575092448,33.8136049039249L141.19664090708963,18.989396668089512L141.5413755896246,19.00038017696832L141.74821639914558,37.59977683011982L141.87054160907735,52.73376094455986L142.00398729263927,63.59360849636633L142.91141794086036,36.005631750100235L143.0181744877099,53.278366834584176L143.03596724551818,56.55647305880562L143.36513326497092,74.3489506804916L143.46966571709444,61.3385382676302L143.61645596901255,58.009512790878546L143.99455207243798,73.23943676549094L144.11687728236976,74.33693397427486L144.25254706065772,74.35321655726202L144.60172993264473,55.47520608135994L144.98427422552228,64.7069089035787L145.48247144415345,62.98736646816171L145.55586657011253,64.57535509181898L145.89615306319544,60.7865157309399L145.9295144840859,44.55929914734318L146.73241268018347,64.5569972550212L147.2617472249791,52.375352752063236L147.27731588806137,49.14180760864534L147.28621226696546,48.9691540701061L147.29510864586962,47.734157273681944L147.60870600224013,40.86636164097908L147.70656617018554,37.5209243238929L148.07576589470688,52.00300424080196L148.10912731559736,52.865052425955284L148.155833304844,59.073941039846005L148.18919472573452,41.286931173760706L148.4516379034063,37.32072158900729L149.45248053012074,43.44918640963158L149.71047551834044,52.1864356697554L149.99960783272462,55.04618405983297L150.09969209539608,45.9015974698259L150.56897608258885,59.53801603125909L150.80473012354827,65.64540395442077L151.3474092367001,68.2252015650865L151.36520199450834,68.78363573007533L151.72550534012552,62.977588634737174L151.8433823606052,55.834889540153796L152.56621314656564,59.72219648398372L153.11334044916956,48.90111834012146L153.491436552595,69.4225008659517L153.52257387875946,41.62943522955035L153.71607011992427,57.75861987449609L154.114183075884,61.69488785551596L154.18757820184302,60.64518040092098L154.5856911578028,68.12755649661939L155.25291957561242,56.06285691856199L155.2662641439686,57.681059104984925L155.66437709992834,51.03200547916546L156.2782272443132,58.47780503732923L157.46811792274036,60.42125666153969L157.79061165801502,70.42758785735992L158.04860664623476,55.055485508448626L158.23765469794748,61.027208505260774L158.411134086578,75.26862038758578L158.47118464418085,72.56010852129958L158.50899425452337,69.3981891464555L159.102827546374,76.1511693175154L159.62326571226546,79.84594928167382L159.727798164389,85.51967001536242L159.99691362623884,89.69572214929003L160.45952532925355,92.93002532034097L160.5262481710345,99.33835719404311L161.65831238658484,95.47159468124877L161.67165695494103,97.69552028139154L161.72058703891372,85.13319739022579L161.92075556425664,81.85820904976065L162.31664442549035,80.16633943454222L163.7556337132331,85.50256501836921L163.94023357549375,86.73318018397008L164.09814430104203,87.21554134366112L164.4584476466592,90.2395088987324L164.6719607403583,91.78977002078054L164.996678570359,92.69577731191931L166.01753804960774,71.64197296396858L166.19546562769028,84.57339087125598L166.8560217613218,72.05568572733843L166.92496869782883,80.1543361594135L167.6522476732413,68.84253963334534L167.9858618821461,80.3045198384794L168.4217844484484,69.81916481387742L168.72870952064082,83.02050309983268L168.88439615146308,82.51590366332013L168.8866202461891,87.56657358103568L169.07344420317582,94.40109231972875L169.42485116988888,74.76944252645876L169.8563255467391,86.35954711709019L170.12988919804107,95.28314912196782L170.37453961790456,94.14150476959472L170.65699964811066,95.18603295862236L171.29309073975583,99.99444054842095L171.31533168701617,66.550651267352L171.68453141153748,69.46794734803167L172.13379854619598,82.49344156498749L172.50077417599127,80.71734365650738L172.92557626866338,79.14112479764859L173.0301087207869,83.46624169890816L173.21470858304755,95.3556457496234L173.38151568749998,94.63553089740415L173.45046262400697,93.89013225675687L173.7173539911308,93.19933941121468L173.81076596962416,94.46841712824128L173.95755622154226,97.8834359573193L174.39792697729663,96.07797730438381L174.7137484283932,97.29653141856703L175.26754801517518,104.60050801203698L176.04375707456038,102.63258061687296L176.35513033620487,92.47678727743204L176.71320958709603,92.39092380496189L176.7754842394249,92.17823478620322L176.87556850209637,94.43250418186057L177.80746419230383,98.68366377118195L177.88308341298892,102.46113180860993L177.96982310730417,89.66749470084186L179.63789415182822,83.708177042003L179.67792785689682,76.17307552766107L179.8936650453219,85.95378208839408L180.00709387634956,84.52061654063677L180.1916937386102,91.73118764818607L180.36517312724072,99.37210443233417L181.1191412393656,98.04688846521495L181.25036282820147,92.8414504300321L181.65737216306536,93.71687902967547L181.6885094892298,100.11082514853072L182.28901506525847,107.02418463819554L182.33572105450517,104.9988767816905L182.7494026735471,109.2163152943233L182.87617607293095,106.88577581129023L183.05187955628747,106.260428264468L183.31209863923326,109.44221011526379L184.5286784543728,103.47266780720432L184.59762539087978,99.55331637387738L184.79112163204456,106.47919880122033L184.960152831223,92.12709351924447L185.53619336526535,100.72524328630432L185.7163450380739,103.62597408658606L186.6771539597198,97.52701702367534L186.95738989519984,90.55722099950133L187.01521635807666,88.21631268577646L187.2732113462964,79.68474491290607L187.61572193410535,86.09797092228474L187.7402712387631,95.96337472805627L187.85370006979076,86.89442206353725L187.90263015376345,93.17128030389182L187.97602527972253,88.80271330558396L188.03162764787334,87.71675544844663L188.60989227664166,96.53605683116672L188.61434046609372,97.80721859880745L188.84119812814902,109.21545035394337L188.8478704123271,107.96046080625702L189.19038100013603,100.52969082631432L189.55735662993135,101.93975453398974L189.89097083883615,104.75635512657725L190.19344772157652,107.03176453042263L190.57154382500198,104.20529512185547L190.88069299192043,102.02720405725398L191.92824160788155,105.81492483268144L191.93936208151172,110.3448633064797L192.0438945336352,107.25769724482203L192.17734021719716,113.93904638987671L192.2284943958959,105.07372640819645L192.42199063706065,102.2840672284641L192.8134313088423,110.08985383993677L192.82899997192453,113.29334691163817L194.3213675330921,109.9044398979147L194.40143494322922,104.20422086043148L195.0019405192579,103.22935110768711L195.66472074761546,91.72103653301009L195.70475445268403,99.50626793229372L195.8826820307666,100.4798275338818L196.68558022686418,113.54546598714805L196.9702643517963,117.5678086101723L197.06590042501566,117.06219877983304L197.33056769741347,114.219270255747L197.80429987405833,116.53953894151732L197.91772870508598,123.3387835372283L198.23799834563457,122.11244846744223L198.3425307977581,126.33131288442166L198.60274988070384,128.91833701631626L198.86074486892355,123.40097294803493L198.8763135320058,120.31903351168144L199.51018052892493,120.97953077887428L199.79041646440498,125.17329702413966L200.24857997796758,121.18557852088846L200.4999026820092,127.10950209943258L200.8535337434483,122.94338994776243L201.07371912132547,118.2608770162417L201.594157287217,119.96458809315865L201.75651620221734,113.81539518642745L201.88328960160118,115.5144324275351L203.01757791187754,117.80419934396826L203.1688163532477,120.85679936810487L203.34007164715217,123.12389042739284L203.37120897331664,128.65440321778686L203.45794866763188,123.79642126482213L203.52911969886492,130.09377239059654L204.20524449557865,128.05669077401865L204.44767082071618,127.29861605682967L204.84578377667592,128.76349880506666L205.3239641427728,127.12771724295783L205.68649158311604,111.05671982940329L205.7376457618148,119.16210499345407L205.81104088777383,116.05964540285203L205.81993726667798,117.87873955831004L205.96450342387007,119.51687275673385L206.10906958106213,114.11307783802154L206.60949089441937,123.13480948215395L206.64507641003587,109.79229005133602L206.9653460505845,112.6009233928857L207.02317251346133,116.28120289852988L207.1054640183245,115.78587108617764L207.57919619496934,122.88796512105003L207.9572922983948,128.34839278274032L207.99955009818942,123.33781952742333L208.2264077602447,128.60651100440435L208.81356876791716,127.34732095317516L209.0648914719588,128.57060320931618L209.1427347873699,132.2890606834545L210.08352685648148,126.57316807306407L211.82721712169064,126.39666583771132L211.90283634237574,123.14362926727262L212.07853982573226,122.69289890251692L212.58118523381552,125.1282186768259L212.69683815956918,119.71563926556558L213.00821142121367,129.2466249081884L213.54866643963948,122.87694445253278L214.10913831059955,127.12254542606408L214.4672175614907,129.08269779845094L215.00544848519047,133.8883501946137L215.07661951642353,128.95862878011707L215.51476617745183,129.87585203957076L215.5481275983423,136.93168327580005L215.97515378574047,130.9791229903327L216.1642018374532,116.9834454963316L216.28430295265892,121.94046906652366L216.45778234128946,130.0566839276666L216.90704947594793,128.390210474798L216.97822050718094,129.00211874808548L217.06051201204414,129.76391495496753L217.23843959012672,132.44460247658353L217.57427789375754,133.8944195348566L217.99240770225157,137.09095647738224L218.06135463875856,138.80284563860468L218.13474976471764,135.35367143957097L218.38829656348528,132.18755912551705L218.5284145312253,136.31475982910848L219.0533008865689,128.17827987406895L219.11779963362383,130.20241722766332L220.09195312362587,125.39823281400682L220.5300997846542,126.87520807604949L220.8214561937644,127.66773172556536L220.8503694252028,129.6121950053526L220.9526777826003,132.47479768384983L221.0105042454771,135.2643456000785L221.3285497912997,131.15578847854349L222.18482626082206,124.63470221900874L222.3115996602059,124.12231475373358L222.5473537011653,120.4770689664721L222.69191985835738,123.542692367601L222.7920041210288,117.33573310940764L223.15453156137207,119.52365009595181L223.74169256904455,126.5099567975451L223.83955273698993,124.72051301783478L224.36666318705954,129.43709307393482L224.5156775337037,128.13472129190504L225.03389160486918,115.92195624020891L225.34748896123972,124.04844734182706L225.58546709692513,129.07205050788963L226.34165930377603,127.9144114133093L226.53070735548874,124.27859920247008L226.56629287110528,118.86231234895953L227.41589705644955,121.13137879824359L227.45370666679207,123.22196674350738L227.74283898117625,114.87849385346897L227.92299065398484,120.25848249229261L228.06088452699885,117.87886534616166L228.51015166165735,118.79352661849612L228.98388383830218,114.36708945214778L230.37171894734618,125.19799991437107L230.4162008418668,120.5067619749707L230.87436435542944,118.75929673108539L231.26135683775902,113.45949505623857L231.59497104666383,119.61795561836527L231.63945294118446,122.9585652845297L231.64612522536257,126.68975339864289L231.78401909837655,121.38299795543205L231.83517327707528,119.35439534472502L231.8418455612534,125.38676535788302L232.6402955678989,126.79537878159167L232.69812203077575,129.38328053183952L233.11847593399582,123.2069159267819L234.05259571892927,122.8724121273134L234.18381730776517,124.13215427362856L234.18826549721726,126.01748724996528L234.25721243372425,122.5476542440154L234.41512315927253,122.63232815928536L234.93556132516403,123.3841149217165L235.15129851358915,122.80300021225791L235.7028740056451,123.28149738246205L236.6592347378389,115.88001065173258L237.72457611160826,125.8454168530762L237.82243627955367,120.94120616697904L238.07153488886928,124.04827819813778L238.62311038092525,124.35547402036197L238.86108851661066,131.5625474704311L239.1702376835291,135.61540554639382L239.230288241132,140.088007801393L239.51274827133807,134.90141138011563L239.81744924880445,137.11458139169122L239.94199855346227,138.88965240481718L240.01316958469528,136.82222628143367L240.17108031024355,137.02745601948922L241.01623630613574,138.06601326485196L241.2141807367526,139.68808033971663L241.26533491545135,135.44463773142803L241.9970620803159,139.88060002022843L242.17498965839846,136.14582715682747L242.51750024620742,133.05430791717322L242.6620664033995,130.70558300575905L243.59173799888092,135.9976641755329L243.89866307107334,137.53688407647007L244.05434970189557,138.1379448962652L244.21003633271783,136.25615412002514L244.4769276998417,138.4493557261257L244.57478786778708,140.69271908327488L244.87726475052744,139.97107516617993L245.00403814991128,140.73662060826263L245.20198258052815,136.7298672709942L245.32208369573388,134.248939962401L245.50001127381645,132.75100545382276L245.74466169367997,139.65731483623762L245.7669026409403,144.63724118826767L246.0849481867629,142.3390700470871L246.2473071017632,139.5594637458234L246.67433328916138,140.01348780448862L246.83001991998364,142.03891268825225L246.9390005615592,141.08457828809853L247.12137632909383,137.93465491223486L247.45276644327262,141.14543949532012L248.12221895580828,139.38995667779795L249.12528567724874,141.82854518994452L249.36103971820816,143.47038943914936L249.3654879076602,143.76226518692192L249.9659934836889,138.7378762923834L250.8556313741017,139.49947979229916L251.48282608684275,137.99287128057966L251.53398026554152,142.41749114098246L251.8942836111587,143.76309852381175L252.1322617468441,145.2343838883094L252.26348333568,135.47548635438375L252.2835001882143,139.1192508172407L252.4414109137626,144.3479432074034L252.60821801821498,139.4135691705498L252.79281788047564,137.17737042946987L252.9685213638322,137.2633313618326L253.19315493116144,144.19526075404585L253.23763682568207,134.88254273490182L253.40666802486052,135.88506605335192L253.53344142424436,141.68687873234373L253.55790646623072,142.306779522123L254.5009226300683,143.5091798315341L254.54540452458895,148.2144803160091L255.35497500486463,141.28959994285404L255.8042421395231,141.13576583316598L255.8754131707561,141.75272523643278L255.9955142859619,141.74089438799854L256.1956828113047,132.73425857813473L256.629381282881,137.9291681055912L256.698328219388,139.26299895786633L256.8206534293198,140.03244476288452L256.8984967447309,142.4109521025593L256.9207376919912,138.22248368349213L257.35443616356747,141.08547140705406L257.9238044134317,140.5144114567326L258.04612962336347,142.8117573655315L259.00249035555726,136.45588652598724L259.7342175204218,140.36226434117282L259.86321501453165,137.51013855087433L260.6861300631635,133.46678922067392" fill="none"></path></g><g><path style="fill: none;" stroke="rgb(255, 112, 67)" stroke-width="2px" d="M48.40963303175695,-24.103286671607748L48.87224473477161,20.056115087539865L50.94287692470749,-16.871713032822925L51.12080450279006,12.701422319269057L52.068268856079726,15.182562072489958L52.20393863436768,-6.823351863214128L52.32403974957341,10.896412116252009L53.46277624930184,40.95198178016085L53.53839546998693,37.19227900969028L54.43470564457786,66.70287835503034L56.454183655815,89.57274183507381L56.80336652780204,69.13317666852029L59.60572588260247,70.13588905540371L60.437537310138474,81.05814879678235L60.68441182472804,99.08161352511722L60.893476728975045,101.00506401267363L62.2279335645943,103.1617894390174L63.65802647343293,104.44092962805567L65.30608066542271,115.13449548691676L65.8398633996704,122.56853077706677L66.32916423939749,125.44439738808819L66.83180964748072,124.90725766624226L71.2533099628325,120.41938501236032L71.49573628797,128.80311904912747L71.69812890803894,127.41473670157654L72.43430426235555,132.43441956513587L72.8390895024934,133.64231397805383L73.01479298584994,128.20551333448918L73.49519744667286,135.2575544481185L73.58193714098812,130.13359896743378L74.03565246509866,128.015688146877L74.19801138009899,125.33827075968637L74.69843269345621,132.42520468705817L74.84077475592227,133.95781809327752L75.22999133297789,126.89257185841839L76.40653744304886,134.2381276012748L77.47855110099633,132.98650981150425L77.54082575332522,130.25450886285395L79.604785659083,135.62595690666768L79.77159276353541,140.06317230937537L79.91838301545353,142.74336869242524L80.45883803387932,144.8288762692626L80.52778497038632,145.4347174913889L81.51973121819663,150.40230804252425L81.81998400621096,147.95860775789419L81.82443219566304,140.89821247730458L81.90894779525225,147.5439685081716L82.80970615929523,150.97209250585618L83.27009376758389,148.17947030395763L83.97957998518812,149.70037654243063L85.22284893704006,153.44021259503643L85.30069225245119,149.3743211575761L87.41358224218166,151.25987668259734L87.41580633690769,152.86704942231376L89.20620259136354,150.18881061007704L91.29685163383368,153.51494459452607L92.24654008184939,157.889128239144L92.30436654472622,158.41415577210688L92.45115679664434,160.51485413335993L92.8981998365768,162.65832319707255L94.15703745151094,163.96936557268134L94.5484781232926,164.5435808562212L94.60630458616944,164.78818022338837L94.92435013199203,163.3916235817948L95.58268217089753,161.14674319494694L95.89850362199408,162.60256673830665L96.1075685262411,164.18996829899197L96.13870585240554,162.98044226629605L97.66443483446355,161.1466689837448L97.74672633932676,159.9438578944237L98.84320503926057,161.88272499204217L99.95302830755058,160.81330970775355L100.44677733672971,163.45792307768573L100.97388778679931,162.87012053401187L100.99168054460756,161.61739527876244L101.2852610484438,162.66529044725425L101.61220297317051,163.69239269411867L102.04367735002073,165.0598641090646L102.10595200234964,164.4219953651063L102.84879964084435,164.48792269973012L102.87548877755673,163.69843013308636L102.9555561876939,160.54257020610763L103.07565730289963,162.98745366800657L103.1579488077628,163.44639499921513L103.240240312626,164.99207596867498L103.51380396392794,161.7903509225023L104.2388588446144,163.5616093092263L104.60138628495764,163.40893461403468L104.76596929468401,162.4160636329558L106.73206903249638,159.6000318891288L107.77739355373146,160.09196938253262L107.96421751071816,159.18234845746315L109.28088158852916,157.54961221454528L109.34760443031011,155.5310402420277L109.77240652298225,152.78473920618407L110.55528786654554,155.51044025229817L111.19360305291676,157.5295510244644L111.80522910257558,156.36881144029473L112.05432771189116,155.85356424506867L113.34207855826375,159.17527008306797L113.93146366066225,155.49046297570297L114.19835502778609,151.8010086434344L115.21254222285673,154.7456777316045L116.11552468162576,152.58062611060393L116.5759122899144,157.28012750153215L117.43663694888883,160.02937778588935L117.89035227299938,160.47550472382824L118.37965311272643,161.60238460920087L118.54201202772678,160.27097848885867L119.0913634250567,161.82354824614316L119.60512930677011,155.70469398551458L121.52452305533582,158.14691791202912L122.26737069383051,153.948130343629L124.8717856180141,156.4679025629914L125.03192043828841,158.99748071914345L125.24098534253542,153.1774875240451L125.65911515102945,155.82154585808215L125.83704272911201,158.90904318464766L126.1195027593181,158.3308746409274L126.23293159034574,158.8639882224198L126.35080861082542,160.60610293735567L127.48954511055386,159.34616562846577L127.8187111300066,155.13197431329132L128.7261417782277,155.5324795751686L129.02639456624203,148.1131062104656L129.36223286987288,149.4549692946201L130.86572090467058,153.65125698234266L131.0414243880271,158.74366052497493L133.01642050474362,159.4538894898831L134.00169446837583,160.64179667813937L134.50433987645908,160.1315040384427L134.97362386365182,160.67567105466762L137.40011120975285,156.27383347436796L137.57581469310938,156.02591700444748L139.143801474962,147.93359590692864L140.84078575092448,148.51777401408802L141.5413755896246,144.83581365565433L141.74821639914558,148.0878936711174L143.0181744877099,152.72934985241662L144.11687728236976,153.56921157959738L144.98427422552228,155.61697072209142L145.48247144415345,154.53413306722155L145.55586657011253,150.40546232722585L145.89615306319544,152.80323918382493L145.9295144840859,155.28064675121234L146.73241268018347,156.82968206830452L147.2617472249791,154.54215386637094L147.60870600224013,147.51645094953523L149.71047551834044,148.02451500446116L150.80473012354827,151.09890457436123L151.8433823606052,150.82560757536942L153.11334044916956,150.74579303374767L153.52257387875946,140.0019232556976L153.71607011992427,142.15782965420277L154.114183075884,142.87582161008424L154.18757820184302,147.1021139429314L155.2662641439686,149.35832793239305L158.411134086578,149.9208572634265L158.47118464418085,151.37921299022025L158.50899425452337,150.88755303055967L159.62326571226546,144.13001166111246L159.727798164389,147.36489823242496L159.99691362623884,150.90682808655896L160.45952532925355,146.57297321781644L161.65831238658484,144.4315829090544L161.67165695494103,140.72549766222778L161.92075556425664,144.19424158262174L162.31664442549035,147.43962352419436L163.94023357549375,147.9217743028375L164.09814430104203,150.1190543883494L166.01753804960774,150.11610430454215L166.92496869782883,147.85680035718082L169.07344420317582,153.4026539123886L169.42485116988888,152.98545027488052L169.8563255467391,156.42390641118058L171.31533168701617,156.88986206895922L172.13379854619598,157.27429412145455L173.0301087207869,155.37861794678827L173.7173539911308,154.13081419209385L173.81076596962416,149.9780554477827L176.35513033620487,147.54006761110742L176.7754842394249,151.0628012374716L176.87556850209637,154.37420416685652L177.80746419230383,153.42114878773282L179.67792785689682,151.99361655924162L179.8936650453219,152.3051865075031L180.36517312724072,150.36502505191956L181.65737216306536,152.90038834729745L181.6885094892298,155.95298394822984L182.28901506525847,154.682714401949L182.87617607293095,153.77090745667158L183.31209863923326,154.7638572762276L184.5286784543728,153.5555560822225L184.79112163204456,151.8805515994156L184.960152831223,152.76821625531954L185.7163450380739,151.26733571749565L186.6771539597198,152.91652568618304L187.7402712387631,147.29738506998507L187.85370006979076,150.68041756550102L187.90263015376345,151.40447793240503L187.97602527972253,150.17974344093517L188.03162764787334,145.3635653371449L188.60989227664166,149.03498164621354L188.84119812814902,147.70078368052205L188.8478704123271,146.13854577148493L189.55735662993135,144.88233050335904L190.19344772157652,147.57251002887674L190.57154382500198,148.62572895761224L192.8134313088423,151.97334404418714L195.70475445268403,148.30733550977465L197.33056769741347,145.89141723097094L197.91772870508598,144.39791302775618L198.23799834563457,144.93127093446984L198.3425307977581,145.03081746609377L198.60274988070384,142.60145768881114L198.86074486892355,140.5503656555948L198.8763135320058,138.36711867158817L199.51018052892493,138.6434706024056L201.07371912132547,135.27941079796204L201.75651620221734,137.2187878946811L203.01757791187754,133.34372653105925L203.1688163532477,121.71634637124414L203.34007164715217,117.75387816565868L203.37120897331664,117.59964649972355L203.45794866763188,122.81094445293668L203.52911969886492,114.10539401793346L204.84578377667592,115.97756037357871L205.81104088777383,120.65696214069979L205.96450342387007,120.5959981013371L206.10906958106213,126.06435227661171L206.60949089441937,120.93410914974558L206.64507641003587,122.29870672960922L206.9653460505845,119.450843506592L207.02317251346133,115.54064069087514L207.1054640183245,119.505868175019L207.9572922983948,121.72000928442276L207.99955009818942,121.2096756449522L209.0648914719588,113.82270656637623L211.82721712169064,117.15500451721687L211.90283634237574,115.23119031828898L213.00821142121367,120.88688605337441L215.5481275983423,119.07888849281349L215.97515378574047,120.49133470176609L217.06051201204414,116.42672015195075L217.99240770225157,121.6569325987706L218.06135463875856,118.00652590583067L218.38829656348528,100.28671085623849L219.11779963362383,106.6039506817684L220.8214561937644,109.53885543702597L221.0105042454771,111.33767268446921L221.3285497912997,113.70272375391293L222.18482626082206,114.39335052901276L222.7920041210288,113.62028174903733L223.83955273698993,106.7022915894614L225.03389160486918,114.33787620877588L225.34748896123972,122.3214123371489L226.53070735548874,125.9278279016435L226.56629287110528,117.22025806915349L227.92299065398484,125.61398265730463L228.06088452699885,124.90928480476134L228.51015166165735,129.73234725005045L230.87436435542944,132.81541247263925L231.59497104666383,136.9270514405959L231.64612522536257,135.55717419224914L232.69812203077575,139.79128696599216L234.05259571892927,137.91435986227785L234.18381730776517,124.09996042858738L234.93556132516403,130.55388588860575L235.15129851358915,136.32062685778683L235.7028740056451,129.65561034992876L236.6592347378389,131.75187183207404L238.07153488886928,132.00609196503854L238.62311038092525,132.50715064819894L239.230288241132,138.3879618092016L239.81744924880445,140.60016636718498L239.94199855346227,128.0549085327281L240.17108031024355,128.83788409664857L241.9970620803159,126.1527138875623L242.51750024620742,135.20030072712615L242.6620664033995,140.59628925984273L244.05434970189557,134.07846533766298L245.32208369573388,138.92294170818496L245.74466169367997,133.56752324410581L246.2473071017632,125.97897691345628L246.83001991998364,132.5115447331425L248.12221895580828,131.87550789267448L249.12528567724874,132.68140682302885L249.3654879076602,135.41038565960915L249.9659934836889,138.38319025422663L251.53398026554152,129.33264388822914L252.1322617468441,134.33094305404157L252.26348333568,137.70871955703035L252.4414109137626,138.02128816810986L252.60821801821498,138.19699817832625L253.19315493116144,135.5750555555123L253.55790646623072,132.97133176760312L254.5009226300683,115.54702416312696L254.54540452458895,124.37834565900897L256.1956828113047,128.70992655246476L256.629381282881,131.94616027528934L256.698328219388,136.60599713573382L256.8206534293198,141.78179296614596L256.8984967447309,140.4848748436361L256.9207376919912,141.6369806792719L257.35443616356747,140.43047145161214L258.04612962336347,143.3586177855121L259.00249035555726,137.0416964125414L259.7342175204218,133.35533967377518L259.86321501453165,127.98667214572387L261.1131562505617,129.11609369550618" fill="none"></path></g></g></g></g><g opacity="0.2"><g><g><g><path style="fill: none;" stroke="rgb(0, 119, 187)" stroke-width="2px" d="M28.868736768839018,-0.8972964532234187L29.006630641853008,9.61558942696061L29.102266715072385,40.35997048924733L29.11783537815461,29.745915704712786L29.22459192500415,48.642188149731425L29.253505156442568,52.29875833560308L29.402519503086715,47.34330513071089L29.611584407333734,49.39864203379372L30.069747920896347,65.33680564677249L30.77923413850058,69.65720493176586L30.89488706425425,48.51375425286906L30.910455727336473,74.22011843408674L31.008315895281886,62.27770477909604L31.575460050420066,25.72004364421906L31.671096123639447,83.52641955333438L31.677768407817542,41.549671090649184L31.98914166946204,59.795338774231496L32.078105458503316,85.71297943684492L32.34277273090114,65.2769968109031L32.94550240165584,84.17459577127599L33.12787816919047,65.80733084688777L33.341391262889545,49.98156049894925L33.34361535761558,89.80185757534389L33.786210208095966,94.77582077140995L34.571315646385294,85.61205542763675L34.99834183378345,108.77772094161728L35.03392734939997,100.3457703095316L35.16514893823586,89.49279310309028L35.8612905874839,94.13691655566238L35.86573877693597,107.0259179621573L35.976943513237565,117.0796934769154L36.13485423878584,111.68067394549188L36.31278181686841,109.24551828195281L36.61303460488275,104.35898265169583L37.415932800980336,129.90270244519726L37.600532663241,113.14709925507512L37.80514937803595,113.9750285074813L37.84295898837849,120.76202186990938L38.21438280762585,126.29418612836352L38.46348141694145,124.33311684846768L38.87049075180531,127.73173762040267L39.23301819214854,112.83504161997088L39.702302179341316,127.1509075665997L39.733439505505764,132.46086009528915L40.543009985781445,124.43086742478992L40.856607342151975,111.44594875421878L40.952243415371356,109.9711970097966L41.13684327763202,136.340009353639L41.60390317009875,119.26380781032414L41.64616096989336,137.26131508301984L42.43571459763475,128.73186557239708L42.71372643838877,135.92141552898173L42.74041557510115,127.36074188771289L43.05846112092374,121.92487584133411L43.30755973023933,130.93643205151116L43.7279136334594,106.59376647031533L44.23278313626868,125.32720745493958L44.406262524899184,128.04511156689688L44.41293480907728,114.04073523469495L44.51969135592682,113.62514817817397L45.158006542298025,115.04628149171324L45.235849857709155,130.0126263508858L45.58725682442222,83.6265816665442L45.75406392887463,127.39814281805977L46.00761072764229,122.14703655127752L46.098798611409606,124.31710342721695L46.41462006250616,113.95817836116096L46.71487285052049,93.22357331972844L46.737113797780815,124.43639457209929L46.94395460730179,123.67684548554377L47.56002884641268,94.02785658561484L47.686802245796514,138.3811661477171L47.815799739906375,109.09536354649502L48.40963303175695,95.37578665952827L48.87224473477161,111.10276222546825L49.063516881210376,101.73448902992739L49.09243011264879,113.03139310297065L49.38378652175899,73.50357565558015L50.66931327340554,93.56090277299175L50.94287692470749,122.00190896888017L51.12080450279006,111.26253589790505L51.21644057600943,105.14771507604476L51.40548862772216,117.33298988314793L51.790257015325714,91.13613474507287L52.06159657190163,93.56539931991051L52.068268856079726,96.4609034298728L52.20393863436768,105.73161992441244L52.32403974957341,118.40130752699343L52.506415517108046,92.20153065381758L53.46277624930184,73.23404134088307L53.53839546998693,89.59278515022905L53.80306274238475,54.35293878940273L53.96764575211113,76.88808774626023L54.43470564457786,117.76947465848042L54.445826118208025,116.0284300586755L54.868404116154124,94.57908153776818L55.14864005163417,62.151876294442246L56.454183655815,91.42064847930865L56.80336652780204,85.3574869271927L56.863417085404905,112.31562582574809L57.94210302753047,70.37342118341601L58.055531858558105,89.95597825157874L58.10668603725684,61.26275046702685L58.52926403520294,79.9698278093158L59.44336696760213,78.89513268780567L59.60572588260247,108.45925521695563L59.703586050547884,93.56510000362545L59.94601237568538,94.29345217010624L60.37081446835751,84.0464339801273L60.437537310138474,105.31744781760266L60.68441182472804,71.66553557280848L60.893476728975045,85.63436809615943L62.2279335645943,79.4726906704015L62.30355278527939,82.79295179943617L62.82176685644487,107.99327418225899L62.87514512986964,95.12841535521136L63.65802647343293,112.34903360474655L64.11396589226952,101.89164368486989L65.19932411857317,106.94053118920091L65.30608066542271,87.6794126006219L65.77091646316342,96.166383008016L65.8398633996704,78.29261580862149L66.32916423939749,104.81273933720487L66.37809432337018,118.00082573890376L66.83180964748072,90.88853215089931L66.86294697364518,83.15900881342246L68.85128765871787,95.73371451531804L70.33031065152919,89.69179761679854L70.4481876720089,83.71594798556333L71.2533099628325,101.05339482327194L71.49573628797,101.8049031859879L71.52687361413446,80.56229038237909L71.69812890803894,61.85847150601158L72.2852899157114,84.34777745275493L72.41428740982127,109.59350747655L72.43430426235555,77.6123515243928L72.60333546153399,106.23708349816572L72.8390895024934,78.79958956908575L72.85688226030165,91.12932529958773L73.01479298584994,106.45703334918537L73.27501206879568,64.02405884163936L73.49519744667286,76.75457227519466L73.4974215413989,41.96041466546643L73.58193714098812,87.07667803686678L74.02898018092056,80.6742278703489L74.03565246509866,63.35517537888582L74.19801138009899,101.61492577933136L74.69843269345621,93.83626695260467L74.84077475592227,76.63529473559801L75.0364950918131,89.89135314457702L75.22999133297789,97.64056333043943L75.68370665708844,63.31637310411344L76.40653744304886,93.0567453066642L77.2895030492836,98.33925597412787L77.47855110099633,24.161667011336647L77.54082575332522,85.360622945543L77.7943725520929,81.45915081470616L79.27561963963026,103.57916168947028L79.29786058689058,58.67878018866992L79.39572075483599,78.09385619005556L79.45354721771282,75.51843003110852L79.604785659083,100.53538717611751L79.77159276353541,75.8109028574698L79.91838301545353,93.27113059583887L80.16970571949516,107.3243975221483L80.45883803387932,52.28681289477204L80.48330307586568,86.17614417740484L80.52778497038632,101.76651587242887L81.05489542045594,53.91203229622275L81.51973121819663,103.81568277845375L81.81998400621096,91.03697262036084L81.82443219566304,74.57042732989312L81.90894779525225,90.82894099960087L81.96010197395098,105.53405757098675L82.57395211833584,110.47258580048734L82.791913401487,97.23087416526272L82.80970615929523,107.72003242721286L83.19669864162482,104.74905979755823L83.27009376758389,61.79508448000716L83.43467677731026,80.18183897613851L83.97957998518812,82.91559664723975L84.15528346854467,63.373821422916535L84.28650505738055,98.0466402922669L85.22284893704006,80.05953426047704L85.30069225245119,33.25349440705267L85.46527526217756,41.5616301367659L85.98571342806908,99.78915086160434L86.31487944752182,99.95124423525034L86.68630326676917,110.34180499184437L87.41358224218166,59.88669826760341L87.41580633690769,63.99556937341586L87.48475327341468,86.9217478461337L88.18089492266273,38.354905116768975L88.20758405937512,110.30792102784694L88.21648043827925,46.719924545929416L88.21870453300528,60.56512583826466L88.47447542649898,107.46965435475965L88.9882413082124,106.7239690543167L89.20620259136354,48.793805453400324L89.28404590677464,50.71021878435796L89.69995162054265,56.56800174642245L89.90234424061157,75.6608433590118L91.06332168760032,67.28735463951273L91.29685163383368,45.462836964531874L92.24654008184939,93.12814584593684L92.30436654472622,24.65698104196923L92.45115679664434,68.04565203978528L92.7603059635628,76.57601650587033L92.8981998365768,78.42100208698398L93.36081153959147,-42.96882613863022L93.39639705520798,100.80932280073355L93.67218480123596,36.90837753749946L94.15703745151094,59.00346352888943L94.5484781232926,84.95036235836751L94.60630458616944,84.65715484657929L94.92435013199203,52.2664593873879L95.07781266808823,55.576108393588626L95.26463662507494,83.98770676446985L95.58268217089753,82.84340019875457L95.89850362199408,56.41552730975543L96.1075685262411,83.23170185483515L96.13870585240554,95.06911671755515L97.66443483446355,65.21296353382866L97.74672633932676,51.69438433492296L98.30942230501286,77.51343429482313L98.71865573460276,68.61633935311039L98.84320503926057,100.19022788094271L98.99444348063075,70.53883424676906L99.44593471001527,79.09532086136848L99.95302830755058,-18.945592257379673L100.191006443236,53.642851718953466L100.44677733672971,61.10331012408933L100.68030728296307,101.05800701511902L100.97388778679931,99.15196771449585L100.99168054460756,57.35133967499746L101.2852610484438,104.41818605235224L101.60775478371845,61.71976561845736L101.61220297317051,77.4430201387626L101.8123714985134,50.70087195309267L101.96805812933565,49.342765125487176L102.04367735002073,89.51694928782324L102.10595200234964,-17.521826321060388L102.82878278831006,8.933515639735873L102.84879964084435,102.71583828635568L102.87548877755673,19.648684907478156L102.91774657735135,29.87123399115339L102.9555561876939,79.74826573194254L103.07565730289963,51.31262001861383L103.102346439612,84.92816533477314L103.1579488077628,93.72588726984573L103.240240312626,98.96328961262219L103.51380396392794,68.54289802098508L103.74733391016132,67.87043636809649L104.2388588446144,90.28048472308434L104.28556483386109,98.5699335929098L104.60138628495764,89.04835603827514L104.76596929468401,48.16585349262883L105.17520272427392,11.510125458537459L106.39845482359156,58.47403424440277L106.44516081283824,-5.620575457908387L106.49631499153698,56.35305183789187L106.73206903249638,41.88460601363198L106.93223755783927,85.47856716714256L107.37260831359362,67.73802972781424L107.54608770222413,67.77935578308112L107.77739355373146,57.92074809146823L107.815203164074,75.56897366742672L107.96421751071816,73.9968420907172L108.42905330845886,37.61385241610165L108.4935520555138,29.056359010361547L109.28088158852916,57.30944900037464L109.34760443031011,17.495566816180286L109.58780666072158,61.913103530677986L109.77240652298225,80.30707563086501L109.89917992236607,60.86445572861096L110.55528786654554,-51.25615938653172L111.11798383223166,51.94657191037223L111.19360305291676,74.7772344749415L111.80522910257558,33.25421548719396L112.05432771189116,68.93105001892312L112.7571416453173,42.88015918831496L113.30649304264722,62.637537374881646L113.34207855826375,37.850516360584805L113.93146366066225,55.97389973643418L114.19835502778609,79.64962060808654L114.51195238415663,46.73404683247L115.21254222285673,6.570740096038747L116.11552468162576,44.929006370126245L116.17779933395467,77.1543703976787L116.2912281649823,39.27128913405343L116.50696535340741,7.719611235101183L116.5759122899144,74.57188309546139L116.58703276354457,57.61105097343028L116.82278680450396,41.65689434712928L117.43663694888883,62.60144255196046L117.89035227299938,16.76550718634607L118.21729419772609,23.46533488471451L118.25287971334261,45.34490634821799L118.26177609224673,54.32659895631738L118.33517121820579,64.2263762424118L118.37965311272643,55.03561120919757L118.54201202772678,11.952542138428413L119.0913634250567,5.847292635047239L119.54507874916725,-2.9398307824770598L119.60512930677011,69.06821850919498L119.76081593759237,20.402200049832572L120.20118669334673,49.69122370244045L120.23677220896323,50.712477261781615L121.52452305533582,10.432437174176698L122.22733698876195,25.322510801801542L122.26737069383051,-14.685151466398196L122.73443058629726,13.135984308415374L123.408331288285,23.646434842461844L124.06888742191651,49.877480063462286L124.60267015616422,15.349591499866818L124.68051347157534,30.41276517725649L124.80061458678107,10.20854859295136L124.8717856180141,48.154928448224126L125.03192043828841,30.598912695992823L125.09197099589127,53.001552972925424L125.10086737479541,49.020891276761546L125.24098534253542,27.269835341834522L125.65911515102945,17.71814928997992L125.83704272911201,28.428148549162046L126.1195027593181,67.16191390550097L126.13507142240033,68.68121615789728L126.23293159034574,46.65217022322025L126.35080861082542,21.2732784657874L126.97577922884045,8.853666218053121L127.48954511055386,58.20703051284302L127.8187111300066,93.42191117443815L128.58824790521373,61.82632901858179L128.608264757748,69.87587588593115L128.7261417782277,33.96515969064134L129.02639456624203,32.79675136133588L129.36223286987288,39.1282703709372L130.19626839213493,58.79782643840994L130.83013538905408,52.38492060984349L130.86572090467058,-14.010683033871175L131.0414243880271,44.44118885190588L131.23269653446584,83.05775147471503L132.88297482118168,77.27544383498571L133.01642050474362,63.325713132735885L133.64806340693673,58.69766432520011L133.76594042741644,71.35070926206745L133.8348873639234,42.266125434798795L133.91495477406056,63.106681638499936L134.00169446837583,41.75901562147769L134.30861954056826,72.67714978724209L134.45318569776035,66.54222715578285L134.50433987645908,72.70436035861125L134.74009391741848,14.547260592476164L134.97362386365182,-17.37234504724401L135.0759322210493,8.858509699756837L135.7320401652288,61.41017054006204L136.4481986670111,32.96589227296647L137.40011120975285,59.86786855221595L137.57581469310938,32.93117158389944L137.85605062858943,84.47777595747102L139.0325967386604,21.878795310465023L139.143801474962,48.07747355682184L139.350642284483,20.441845852317414L139.38622780009948,38.2940486739019L139.45295064188048,23.457702319445445L139.61530955688082,44.41684899581617L140.4182077529784,82.31456954683803L140.84078575092448,2.2623814888762297L141.19664090708963,-3.2469156856635664L141.5413755896246,19.016855440286577L141.74821639914558,65.49887180984712L141.87054160907735,75.43473711621988L142.00398729263927,79.88337982407603L142.91141794086036,-5.376333369298919L143.0181744877099,79.1874694613101L143.03596724551818,61.47363239513774L143.36513326497092,101.03766711302058L143.46966571709444,41.82291964833814L143.61645596901255,53.01597457575106L143.99455207243798,96.0843227274095L144.11687728236976,75.98317978745072L144.25254706065772,74.37764043174273L144.60172993264473,27.158190367506904L144.98427422552228,78.55446313690679L145.48247144415345,60.40805281503626L145.55586657011253,66.95733802730489L145.89615306319544,55.103256689621276L145.9295144840859,20.218474271948082L146.73241268018347,94.55354441653823L147.2617472249791,34.10288599762629L147.27731588806137,44.2914898935185L147.28621226696546,48.710173762297245L147.29510864586962,45.88166207904578L147.60870600224013,30.56466819192474L147.70656617018554,32.5027683482636L148.07576589470688,73.72612411616556L148.10912731559736,54.15812470368532L148.155833304844,68.38727396068207L148.18919472573452,14.606416374632715L148.4516379034063,31.371407211877226L149.45248053012074,52.641883640568025L149.71047551834044,65.29230955994107L149.99960783272462,59.33580664494934L150.09969209539608,32.18471758481533L150.56897608258885,79.99264387340882L150.80473012354827,74.80648583916333L151.3474092367001,72.0948979810851L151.36520199450834,69.62128697755858L151.72550534012552,54.26851799172995L151.8433823606052,45.12084089827874L152.56621314656564,65.55315689972856L153.11334044916956,32.669501124328065L153.491436552595,100.2045746546971L153.52257387875946,-0.060163225051610425L153.71607011992427,81.9523968419147L154.114183075884,67.5992898270458L154.18757820184302,59.07061921902847L154.5856911578028,79.35112064016698L155.25291957561242,37.965807551475876L155.2662641439686,60.10836238461931L155.66437709992834,41.058425040436276L156.2782272443132,69.64650437457492L157.46811792274036,63.336434097855346L157.79061165801502,85.43708465109029L158.04860664623476,31.9973319850817L158.23765469794748,69.98479300047902L158.411134086578,96.63073821107334L158.47118464418085,68.49734072187027L158.50899425452337,64.65531008418935L159.102827546374,86.28063957410521L159.62326571226546,85.3881192279115L159.727798164389,94.03025111589533L159.99691362623884,95.95980035018144L160.45952532925355,97.7814800769174L160.5262481710345,108.95085500459632L161.65831238658484,89.67145091205725L161.67165695494103,101.03140868160568L161.72058703891372,66.28971305347717L161.92075556425664,76.94572653906292L162.31664442549035,77.62853501171462L163.7556337132331,93.50690339410968L163.94023357549375,88.57910293237137L164.09814430104203,87.93908308319767L164.4584476466592,94.77546023133931L164.6719607403583,94.11516170385275L164.996678570359,94.05478824862746L166.01753804960774,40.06126644204252L166.19546562769028,103.97051773218705L166.8560217613218,53.27912801146208L166.92496869782883,92.30231180752608L167.6522476732413,51.87484484424314L167.9858618821461,97.49749014618045L168.4217844484484,54.09113227697448L168.72870952064082,102.82251052876558L168.88439615146308,81.75900450855133L168.8866202461891,95.142578457609L169.07344420317582,104.65287042776829L169.42485116988888,45.321967836553796L169.8563255467391,103.74470400303733L170.12988919804107,108.66855212928427L170.37453961790456,92.42903824103503L170.65699964811066,96.75282524216387L171.29309073975583,107.20705193311885L171.31533168701617,16.38496734574855L171.68453141153748,73.84389146905123L172.13379854619598,102.03168289042121L172.50077417599127,78.05319679378721L172.92557626866338,76.77679650936042L173.0301087207869,89.95391705079753L173.21470858304755,113.18975182569625L173.38151568749998,93.55535861907529L173.45046262400697,92.77203429578597L173.7173539911308,92.16315014290142L173.81076596962416,96.37203370378117L173.95755622154226,103.00596420093636L174.39792697729663,93.36978932498056L174.7137484283932,99.12436258984187L175.26754801517518,115.55647290224192L176.04375707456038,99.6806895241269L176.35513033620487,77.24309726827063L176.71320958709603,92.26212859625669L176.7754842394249,91.8592012580652L176.87556850209637,97.81390827534659L177.80746419230383,105.06040315516401L177.88308341298892,108.12733386475193L177.96982310730417,70.47703903918972L179.63789415182822,74.76920055374474L179.67792785689682,64.87042325614814L179.8936650453219,100.62484192949357L180.00709387634956,82.37086821900081L180.1916937386102,102.54704430951001L180.36517312724072,110.83347960855633L181.1191412393656,96.05906451453609L181.25036282820147,85.03329337725783L181.65737216306536,95.03002192914053L181.6885094892298,109.70174432681362L182.28901506525847,117.39422387269278L182.33572105450517,101.9609149969329L182.7494026735471,115.54247306327248L182.87617607293095,103.3899665867406L183.05187955628747,105.32240694423469L183.31209863923326,114.21488289145749L184.5286784543728,94.51835434511509L184.59762539087978,93.67428922388699L184.79112163204456,116.8680224422348L184.960152831223,70.59893559628065L185.53619336526535,113.62246793689411L185.7163450380739,107.97707028700866L186.6771539597198,88.37858142930929L186.95738989519984,80.10252696324031L187.01521635807666,84.70495021518919L187.2732113462964,66.88739325360048L187.61572193410535,95.71780993635278L187.7402712387631,110.76148043671358L187.85370006979076,73.29099306675869L187.90263015376345,102.5865676644237L187.97602527972253,82.24986280812222L188.03162764787334,86.0878186627406L188.60989227664166,109.76500890524689L188.61434046609372,99.71396125026854L188.84119812814902,126.32779798664727L188.8478704123271,106.07797648472747L189.19038100013603,89.38353585640031L189.55735662993135,104.05485009550286L189.89097083883615,108.9812560154585L190.19344772157652,110.44487863619071L190.57154382500198,99.96559100900473L190.88069299192043,98.76006746035172L191.92824160788155,111.49650599582266L191.93936208151172,117.13977101717705L192.0438945336352,102.62694815233552L192.17734021719716,123.96107010745877L192.2284943958959,91.77574643567603L192.42199063706065,98.09957845886558L192.8134313088423,121.79853375714575L192.82899997192453,118.09858651919026L194.3213675330921,104.82107937732953L194.40143494322922,95.65389230420665L195.0019405192579,101.76704647857058L195.66472074761546,74.45856467099458L195.70475445268403,111.18411503121916L195.8826820307666,101.94016693626392L196.68558022686418,133.14392366704743L196.9702643517963,123.6013225447087L197.06590042501566,116.30378403432417L197.33056769741347,109.95487746961794L197.80429987405833,120.01994197017282L197.91772870508598,133.5376504307947L198.23799834563457,120.27294586276315L198.3425307977581,132.6596095098908L198.60274988070384,132.7988732141581L198.86074486892355,115.12492684561292L198.8763135320058,115.69612435715122L199.51018052892493,121.97027667966354L199.79041646440498,131.4639463920377L200.24857997796758,115.20400076601166L200.4999026820092,135.99538746724875L200.8535337434483,116.69422172025722L201.07371912132547,111.23710761896058L201.594157287217,122.52015470853411L201.75651620221734,104.59160582633066L201.88328960160118,118.06298828919657L203.01757791187754,121.23884971861804L203.1688163532477,125.43569940430979L203.34007164715217,126.52452701632478L203.37120897331664,136.9501724033779L203.45794866763188,116.50944833537503L203.52911969886492,139.53979907925822L204.20524449557865,125.00106834915182L204.44767082071618,126.16150398104614L204.84578377667592,130.96082292742219L205.3239641427728,124.67404489979457L205.68649158311604,86.95022370907151L205.7376457618148,131.32018273953025L205.81104088777383,111.40595601694898L205.81993726667798,120.60738079149708L205.96450342387007,121.97407255436954L206.10906958106213,106.00738545995307L206.60949089441937,136.66740694835258L206.64507641003587,89.77851090510917L206.9653460505845,116.81387340521019L207.02317251346133,121.80162215699616L207.1054640183245,115.04287336764926L207.57919619496934,133.5411061733586L207.9572922983948,136.53903427527578L207.99955009818942,115.82195964444784L208.2264077602447,136.5095482198759L208.81356876791716,125.45853587633135L209.0648914719588,130.40552659352772L209.1427347873699,137.86674689466196L210.08352685648148,117.99932915747846L211.82721712169064,126.1319124846822L211.90283634237574,118.26407441161456L212.07853982573226,122.01680335538336L212.58118523381552,128.78119833828936L212.69683815956918,111.59677014867512L213.00821142121367,143.54310337212263L213.54866643963948,113.32242376904937L214.10913831059955,133.490946886361L214.4672175614907,132.02292635703125L215.00544848519047,141.09682878885786L215.07661951642353,121.56404665837213L215.51476617745183,131.25168692875127L215.5481275983423,147.515430130144L215.97515378574047,122.05028256213168L216.1642018374532,95.98992925532993L216.28430295265892,129.37600442181179L216.45778234128946,142.23100621938096L216.90704947594793,125.89050029549513L216.97822050718094,129.9199811580167L217.06051201204414,130.90660926529057L217.23843959012672,136.46563375900752L217.57427789375754,136.06914512226626L217.99240770225157,141.88576189117063L218.06135463875856,141.37067938043836L218.13474976471764,130.17991014102046L218.38829656348528,127.43839065443615L218.5284145312253,142.50556088449565L219.0533008865689,115.97355994150962L219.11779963362383,133.2386232580549L220.09195312362587,118.19195619352206L220.5300997846542,129.0906709691135L220.8214561937644,128.85651719983915L220.8503694252028,132.52888992503344L220.9526777826003,136.76870170159566L221.0105042454771,139.4486674744215L221.3285497912997,124.99295279624097L222.18482626082206,114.85307282970662L222.3115996602059,123.35373355582082L222.5473537011653,115.00920028557995L222.69191985835738,128.14112746929433L222.7920041210288,108.02529422211764L223.15453156137207,122.80552557576803L223.74169256904455,136.98941684993505L223.83955273698993,122.03634734826926L224.36666318705954,136.5119631580849L224.5156775337037,126.18116361886035L225.03389160486918,97.60280866266474L225.34748896123972,136.23818399425423L225.58546709692513,136.6074552569835L226.34165930377603,126.1779527714388L226.53070735548874,118.82488088621128L226.56629287110528,110.73788206869368L227.41589705644955,124.53497847216971L227.45370666679207,126.35784866140307L227.74283898117625,102.36328451841132L227.92299065398484,128.32846545052806L228.06088452699885,114.30943962696527L228.51015166165735,120.16551852699777L228.98388383830218,107.72743370262526L230.37171894734618,141.444365607706L230.4162008418668,113.46990506587014L230.87436435542944,116.13809886525743L231.26135683775902,105.50979254396832L231.59497104666383,128.85564646155535L231.63945294118446,127.96947978377634L231.64612522536257,132.2865355698127L231.78401909837655,113.42286479061573L231.83517327707528,116.31149142866448L231.8418455612534,134.43532037762003L232.6402955678989,128.90829891715464L232.69812203077575,133.2651331572113L233.11847593399582,113.94236901919548L234.05259571892927,122.3706564281106L234.18381730776517,126.02176749310132L234.18826549721726,128.84548671447038L234.25721243372425,117.34290473509057L234.41512315927253,122.75933903219033L234.93556132516403,124.51179506536319L235.15129851358915,121.93132814807004L235.7028740056451,123.99924313776825L236.6592347378389,104.77778055563836L237.72457611160826,140.79352615509166L237.82243627955367,113.58489013783331L238.07153488886928,128.70888624487586L238.62311038092525,124.81626775369826L238.86108851661066,142.3731576455348L239.1702376835291,141.6946926603379L239.230288241132,146.79691118389172L239.51274827133807,127.1215167481996L239.81744924880445,140.43433640905465L239.94199855346227,141.5522589245061L240.01316958469528,133.7210870963584L240.17108031024355,137.33530062657255L241.01623630613574,139.62384913289608L241.2141807367526,142.12118095201365L241.26533491545135,129.0794738189951L241.9970620803159,146.534543453429L242.17498965839846,130.54366786172605L242.51750024620742,128.4170290576918L242.6620664033995,127.18249563863786L243.59173799888092,143.93578593019365L243.89866307107334,139.84571392787583L244.05434970189557,139.03953612595785L244.21003633271783,133.4334679556651L244.4769276998417,141.7391581352765L244.57478786778708,144.05776411899868L244.87726475052744,138.88860929053746L245.00403814991128,141.88493877138671L245.20198258052815,130.71973726509154L245.32208369573388,130.52754899951125L245.50001127381645,130.50410369095533L245.74466169367997,150.01677890985994L245.7669026409403,152.10713071631272L246.0849481867629,138.8918133353162L246.2473071017632,135.39005429392788L246.67433328916138,140.69452389248644L246.83001991998364,145.0770500138977L246.9390005615592,139.65307668786795L247.12137632909383,133.20976984843935L247.45276644327262,145.96161636994805L248.12221895580828,136.75673245151464L249.12528567724874,145.48642795816437L249.36103971820816,145.93315581295664L249.3654879076602,144.20007880858074L249.9659934836889,131.2012929505756L250.8556313741017,140.64188504217282L251.48282608684275,135.73295851300043L251.53398026554152,149.0544209315866L251.8942836111587,145.78150959805566L252.1322617468441,147.44131193505586L252.26348333568,120.83714005349532L252.2835001882143,144.58489751152607L252.4414109137626,152.19098179264748L252.60821801821498,132.0120081152694L252.79281788047564,133.82307231784995L252.9685213638322,137.3922727603767L253.19315493116144,154.59315484236572L253.23763682568207,120.91346570618578L253.40666802486052,137.38885103102703L253.53344142424436,150.38959775083146L253.55790646623072,143.23663070679194L254.5009226300683,145.31278029565073L254.54540452458895,155.27243104272154L255.35497500486463,130.90227938312145L255.8042421395231,140.9050146686339L255.8754131707561,142.67816434133297L255.9955142859619,141.7231481153472L256.1956828113047,119.22430486333897L256.629381282881,145.72153239677593L256.698328219388,141.26374523627905L256.8206534293198,141.18661347041177L256.8984967447309,145.97871311207143L256.9207376919912,131.9397810548914L257.35443616356747,145.3799529923969L257.9238044134317,139.65782153125048L258.04612962336347,146.25777622872985L259.00249035555726,126.92208026667086L259.7342175204218,146.2218310639512L259.86321501453165,133.2319498654266L260.6861300631635,127.40176522537328" fill="none"></path></g><g><path style="fill: none;" stroke="rgb(255, 112, 67)" stroke-width="2px" d="M45.75406392887463,-249.2678137666706L46.00761072764229,18.630206826416668L46.098798611409606,-10.703959164092652L46.71487285052049,88.66972093767349L47.56002884641268,-198.91682829377368L47.686802245796514,-21.449631482339726L48.40963303175695,26.12354920705218L48.87224473477161,86.29521763771625L50.94287692470749,-72.26345516894017L51.12080450279006,57.06112532605982L52.068268856079726,18.904271701246728L52.20393863436768,-39.83222276105161L52.32403974957341,37.4760580826883L53.46277624930184,86.03533627321237L53.53839546998693,31.552724854195503L54.43470564457786,110.96877737204657L56.454183655815,123.8775370546769L56.80336652780204,38.47382891893784L59.60572588260247,71.63995763572149L60.437537310138474,97.44153840880266L60.68441182472804,126.11681061757233L60.893476728975045,103.89023974400521L62.2279335645943,106.39687757853103L63.65802647343293,106.35963991161235L65.30608066542271,131.1748442752048L65.8398633996704,133.71958371229027L66.32916423939749,129.75819730462L66.83180964748072,124.1015480834734L71.2533099628325,113.68757603153763L71.49573628797,141.37872010427793L71.69812890803894,125.33216318025018L72.43430426235555,139.96394386047479L72.8390895024934,135.45415559743074L73.01479298584994,120.05031236914222L73.49519744667286,145.8356161185625L73.58193714098812,122.4476657464067L74.03565246509866,124.83882191604187L74.19801138009899,121.3221446789004L74.69843269345621,143.05560557811583L74.84077475592227,136.25673820260658L75.22999133297789,116.29470250612971L76.40653744304886,145.25646121555945L77.47855110099633,131.10908312684842L77.54082575332522,126.15650743987848L79.604785659083,143.68312897238826L79.77159276353541,146.7189954134369L79.91838301545353,146.76366326700006L80.45883803387932,147.95713763451866L80.52778497038632,146.3434793245784L81.51973121819663,157.85369386922724L81.81998400621096,144.29305733094913L81.82443219566304,130.30761955642012L81.90894779525225,157.51260255447215L82.80970615929523,156.11427850238306L83.27009376758389,143.99053700110977L83.97957998518812,151.98173590014017L85.22284893704006,159.0499666739451L85.30069225245119,143.27548400138565L87.41358224218166,154.08820997012916L87.41580633690769,155.27780853188838L89.20620259136354,146.17145239172194L91.29685163383368,158.50414557119962L92.24654008184939,164.45040370607086L92.30436654472622,159.20169707155125L92.45115679664434,163.66590167523947L92.8981998365768,165.8735267926415L94.15703745151094,165.93592913609453L94.5484781232926,165.404903781531L94.60630458616944,165.1550792741391L94.92435013199203,161.2967886194044L95.58268217089753,157.77942261467516L95.89850362199408,164.78630205334625L96.1075685262411,166.57107064001997L96.13870585240554,161.1661532172522L97.66443483446355,158.3960090599179L97.74672633932676,158.13964126044206L98.84320503926057,164.79102563846985L99.95302830755058,159.2091867813206L100.44677733672971,167.424843132584L100.97388778679931,161.9884167185011L100.99168054460756,159.73830739588828L101.2852610484438,164.23713319999197L101.61220297317051,165.23304606441525L102.04367735002073,167.11107123148352L102.10595200234964,163.46519224916887L102.84879964084435,164.58681370166582L102.87548877755673,162.51419128312074L102.9555561876939,155.80878031563952L103.07565730289963,166.654778860855L103.1579488077628,164.13480699602795L103.240240312626,167.31059742286473L103.51380396392794,156.98776335324334L104.2388588446144,166.21849688931226L104.60138628495764,163.17992257124723L104.76596929468401,160.9267571613375L106.73206903249638,155.37598427338827L107.77739355373146,160.82987562263835L107.96421751071816,157.81791706985896L109.28088158852916,155.10050785016844L109.34760443031011,152.5031822832514L109.77240652298225,148.66528765241858L110.55528786654554,159.59899182146933L111.19360305291676,160.55821718271378L111.80522910257558,154.62770206404028L112.05432771189116,155.08069345222955L113.34207855826375,164.15782884006697L113.93146366066225,149.96325231465542L114.19835502778609,146.26682714503153L115.21254222285673,159.16268136385966L116.11552468162576,149.33304867910311L116.5759122899144,164.32937958792445L117.43663694888883,164.15325321242517L117.89035227299938,161.14469513073655L118.37965311272643,163.29270443725986L118.54201202772678,158.27386930834535L119.0913634250567,164.15240288206988L119.60512930677011,146.52641259457175L121.52452305533582,161.8102538018009L122.26737069383051,147.6499489910288L124.8717856180141,160.24756089203507L125.03192043828841,162.79184795337153L125.24098534253542,144.44749773139756L125.65911515102945,159.78763335913771L125.83704272911201,163.54028917449594L126.1195027593181,157.463621825347L126.23293159034574,159.66365859465844L126.35080861082542,163.21927500975949L127.48954511055386,157.45625966513091L127.8187111300066,148.81068734052963L128.7261417782277,156.13323746798451L129.02639456624203,136.98404616341108L129.36223286987288,151.4677639208519L130.86572090467058,159.94568851392646L131.0414243880271,166.38226583892336L133.01642050474362,160.51923293724533L134.00169446837583,162.42365746052383L134.50433987645908,159.36606507889763L134.97362386365182,161.49192157900504L137.40011120975285,149.6710771039185L137.57581469310938,155.65404229956673L139.143801474962,135.79511426065042L140.84078575092448,149.39404117482707L141.5413755896246,139.31287311800378L141.74821639914558,152.96601369431204L143.0181744877099,159.69153412436543L144.11687728236976,154.8290041703685L144.98427422552228,158.68860943583246L145.48247144415345,152.9098765849168L145.55586657011253,144.21245621723227L145.89615306319544,156.39990446872358L145.9295144840859,158.99675810229346L146.73241268018347,159.1532350439428L147.2617472249791,151.11086156347062L147.60870600224013,136.97789657428166L149.71047551834044,148.78661108685006L150.80473012354827,155.71048892921132L151.8433823606052,150.4156620768817L153.11334044916956,150.62607122131504L153.52257387875946,123.88611858862245L153.71607011992427,145.39168925196054L154.114183075884,143.95280954390645L154.18757820184302,153.4415524422021L155.2662641439686,152.74264891658555L158.411134086578,150.7646512599767L158.47118464418085,153.56674658041084L158.50899425452337,150.15006309106886L159.62326571226546,133.99369960694162L159.727798164389,152.21722808939373L159.99691362623884,156.2197228677599L160.45952532925355,140.07219091470267L161.65831238658484,141.21949744591137L161.67165695494103,135.1663697919878L161.92075556425664,149.3973574632127L162.31664442549035,152.3076964365533L163.94023357549375,148.64500047080216L164.09814430104203,153.4149745166173L166.01753804960774,150.11167917883125L166.92496869782883,144.46784443613882L169.07344420317582,161.72143424520024L169.42485116988888,152.35964481861842L169.8563255467391,161.58159061563063L171.31533168701617,157.5887955556272L172.13379854619598,157.85094220019755L173.0301087207869,152.53510368478882L173.7173539911308,152.25910856005225L173.81076596962416,143.74891733131602L176.35513033620487,143.88308585609445L176.7754842394249,156.3469016770179L176.87556850209637,159.34130856093384L177.80746419230383,151.99156571904726L179.67792785689682,149.8523182165048L179.8936650453219,152.77254142989528L180.36517312724072,147.4547828685443L181.65737216306536,156.70343329036427L181.6885094892298,160.53187734962845L182.28901506525847,152.77731008252772L182.87617607293095,152.40319703875545L183.31209863923326,156.25328200556163L184.5286784543728,151.74310429121488L184.79112163204456,149.36804487520527L184.960152831223,154.09971323917546L185.7163450380739,149.01601491075976L186.6771539597198,155.3903106392141L187.7402712387631,138.86867414568815L187.85370006979076,155.7549663087749L187.90263015376345,152.49056848276106L187.97602527972253,148.34264170373032L188.03162764787334,138.1392981814596L188.60989227664166,154.54210610981647L188.84119812814902,145.6994867319848L188.8478704123271,143.79518890792926L189.55735662993135,142.9980076011702L190.19344772157652,151.60777931715324L190.57154382500198,150.20555735071554L192.8134313088423,156.99476667404946L195.70475445268403,142.80832270815588L197.33056769741347,142.26753981276545L197.91772870508598,142.157656722934L198.23799834563457,145.7313077945403L198.3425307977581,145.1801372635297L198.60274988070384,138.9574180228872L198.86074486892355,137.47372760577025L198.8763135320058,135.09224819557824L199.51018052892493,139.05799849863183L201.07371912132547,130.23332109129666L201.75651620221734,140.12785353975968L203.01757791187754,127.53113448562647L203.1688163532477,104.27527613152148L203.34007164715217,111.8101758572805L203.37120897331664,117.36829900082083L203.45794866763188,130.62789138275642L203.52911969886492,101.04706836542863L204.84578377667592,118.78580990704658L205.81104088777383,127.6760647913814L205.96450342387007,120.50455204229308L206.10906958106213,134.26688353952358L206.60949089441937,113.23874445944641L206.64507641003587,124.34560309940471L206.9653460505845,115.17904867206616L207.02317251346133,109.67533646729986L207.1054640183245,125.45370940123473L207.9572922983948,125.04122094852842L207.99955009818942,120.44417518574636L209.0648914719588,102.74225294851227L211.82721712169064,122.1534514434778L211.90283634237574,112.34546901989721L213.00821142121367,129.37042965600256L215.5481275983423,116.36689215197207L215.97515378574047,122.61000401519505L217.06051201204414,110.32979832722775L217.99240770225157,129.50225126900037L218.06135463875856,112.53091586642077L218.38829656348528,73.70698828185022L219.11779963362383,116.0798104200633L220.8214561937644,113.9412125699123L221.0105042454771,114.03589855563409L221.3285497912997,117.25030035807853L222.18482626082206,115.42929069166252L222.7920041210288,112.46067857907417L223.83955273698993,96.3253063500975L225.03389160486918,125.79125313774759L225.34748896123972,134.29671652970845L226.53070735548874,131.33745124838538L226.56629287110528,104.15890332041849L227.92299065398484,138.20456953953132L228.06088452699885,123.85223802594643L228.51015166165735,136.96694091798415L230.87436435542944,137.44001030652245L231.59497104666383,143.09450989253088L231.64612522536257,133.50235831972893L232.69812203077575,146.1424561266067L234.05259571892927,135.0989692067064L234.18381730776517,103.37836127805166L234.93556132516403,140.23477407863334L235.15129851358915,144.97073831155842L235.7028740056451,119.65808558814165L236.6592347378389,134.89626405529197L238.07153488886928,132.38742216448523L238.62311038092525,133.25873867293953L239.230288241132,147.20917855070567L239.81744924880445,143.91847320416002L239.94199855346227,109.2370217810428L240.17108031024355,130.01234744252923L241.9970620803159,122.12495857393287L242.51750024620742,148.77168098647195L242.6620664033995,148.69027205891757L244.05434970189557,124.30172945439338L245.32208369573388,146.1896562639679L245.74466169367997,125.53439554798709L246.2473071017632,114.59615741748198L246.83001991998364,142.31039646267186L248.12221895580828,130.92145263197244L249.12528567724874,133.89025521856038L249.3654879076602,139.50385391447958L249.9659934836889,142.8423971461529L251.53398026554152,115.75682433923294L252.1322617468441,141.82839180276022L252.26348333568,142.77538431151353L252.4414109137626,138.4901410847291L252.60821801821498,138.46056319365084L253.19315493116144,131.64214162129142L253.55790646623072,129.06574608573936L254.5009226300683,89.41056275641272L254.54540452458895,137.62532790283203L256.1956828113047,135.2072978926484L256.629381282881,136.80051085952618L256.698328219388,143.5957524264005L256.8206534293198,149.5454867117642L256.8984967447309,138.5394976598713L256.9207376919912,143.36513943272558L257.35443616356747,138.62070761012254L258.04612962336347,147.75083728636204L259.00249035555726,127.56631435308536L259.7342175204218,127.82580456562582L259.86321501453165,119.93367085364696L261.1131562505617,130.81022602017964" fill="none"></path></g></g></g></g></g></g><g transform="translate(69, 178)" clip-path="url(#clip_1)"><clipPath id="clip_1"><rect width="260" height="21"></rect></clipPath><g><g><line x1="3.3474721970934134" y1="0" x2="3.3474721970934134" y2="5" style="visibility: inherit;" fill="rgb(0, 0, 0)" stroke="rgb(204, 204, 204)" stroke-width="1px"></line><line x1="25.58841945741429" y1="0" x2="25.58841945741429" y2="5" style="visibility: inherit;" fill="rgb(0, 0, 0)" stroke="rgb(204, 204, 204)" stroke-width="1px"></line><line x1="47.82936671773517" y1="0" x2="47.82936671773517" y2="5" style="visibility: inherit;" fill="rgb(0, 0, 0)" stroke="rgb(204, 204, 204)" stroke-width="1px"></line><line x1="70.07031397805605" y1="0" x2="70.07031397805605" y2="5" style="visibility: inherit;" fill="rgb(0, 0, 0)" stroke="rgb(204, 204, 204)" stroke-width="1px"></line><line x1="92.31126123837691" y1="0" x2="92.31126123837691" y2="5" style="visibility: inherit;" fill="rgb(0, 0, 0)" stroke="rgb(204, 204, 204)" stroke-width="1px"></line><line x1="114.55220849869781" y1="0" x2="114.55220849869781" y2="5" style="visibility: inherit;" fill="rgb(0, 0, 0)" stroke="rgb(204, 204, 204)" stroke-width="1px"></line><line x1="136.79315575901867" y1="0" x2="136.79315575901867" y2="5" style="visibility: inherit;" fill="rgb(0, 0, 0)" stroke="rgb(204, 204, 204)" stroke-width="1px"></line><line x1="159.03410301933957" y1="0" x2="159.03410301933957" y2="5" style="visibility: inherit;" fill="rgb(0, 0, 0)" stroke="rgb(204, 204, 204)" stroke-width="1px"></line><line x1="181.27505027966046" y1="0" x2="181.27505027966046" y2="5" style="visibility: inherit;" fill="rgb(0, 0, 0)" stroke="rgb(204, 204, 204)" stroke-width="1px"></line><line x1="203.5159975399813" y1="0" x2="203.5159975399813" y2="5" style="visibility: inherit;" fill="rgb(0, 0, 0)" stroke="rgb(204, 204, 204)" stroke-width="1px"></line><line x1="225.7569448003022" y1="0" x2="225.7569448003022" y2="5" style="visibility: inherit;" fill="rgb(0, 0, 0)" stroke="rgb(204, 204, 204)" stroke-width="1px"></line><line x1="247.9978920606231" y1="0" x2="247.9978920606231" y2="5" style="visibility: inherit;" fill="rgb(0, 0, 0)" stroke="rgb(204, 204, 204)" stroke-width="1px"></line></g><g transform="translate(0, 8)"><text style="text-anchor: middle; visibility: hidden; font-family: &quot;Helvetica Neue&quot;, sans-serif; font-size: 12px; font-weight: 200;" x="3.3474721970934134" y="0" dx="0em" dy="0.95em" fill="rgb(50, 49, 63)" stroke="none" stroke-width="1px">-100k</text><text style="text-anchor: middle; visibility: inherit; font-family: &quot;Helvetica Neue&quot;, sans-serif; font-size: 12px; font-weight: 200;" x="25.58841945741429" y="0" dx="0em" dy="0.95em" fill="rgb(50, 49, 63)" stroke="none" stroke-width="1px">0</text><text style="text-anchor: middle; visibility: hidden; font-family: &quot;Helvetica Neue&quot;, sans-serif; font-size: 12px; font-weight: 200;" x="47.82936671773517" y="0" dx="0em" dy="0.95em" fill="rgb(50, 49, 63)" stroke="none" stroke-width="1px">100k</text><text style="text-anchor: middle; visibility: inherit; font-family: &quot;Helvetica Neue&quot;, sans-serif; font-size: 12px; font-weight: 200;" x="70.07031397805605" y="0" dx="0em" dy="0.95em" fill="rgb(50, 49, 63)" stroke="none" stroke-width="1px">200k</text><text style="text-anchor: middle; visibility: hidden; font-family: &quot;Helvetica Neue&quot;, sans-serif; font-size: 12px; font-weight: 200;" x="92.31126123837691" y="0" dx="0em" dy="0.95em" fill="rgb(50, 49, 63)" stroke="none" stroke-width="1px">300k</text><text style="text-anchor: middle; visibility: inherit; font-family: &quot;Helvetica Neue&quot;, sans-serif; font-size: 12px; font-weight: 200;" x="114.55220849869781" y="0" dx="0em" dy="0.95em" fill="rgb(50, 49, 63)" stroke="none" stroke-width="1px">400k</text><text style="text-anchor: middle; visibility: hidden; font-family: &quot;Helvetica Neue&quot;, sans-serif; font-size: 12px; font-weight: 200;" x="136.79315575901867" y="0" dx="0em" dy="0.95em" fill="rgb(50, 49, 63)" stroke="none" stroke-width="1px">500k</text><text style="text-anchor: middle; visibility: inherit; font-family: &quot;Helvetica Neue&quot;, sans-serif; font-size: 12px; font-weight: 200;" x="159.03410301933957" y="0" dx="0em" dy="0.95em" fill="rgb(50, 49, 63)" stroke="none" stroke-width="1px">600k</text><text style="text-anchor: middle; visibility: hidden; font-family: &quot;Helvetica Neue&quot;, sans-serif; font-size: 12px; font-weight: 200;" x="181.27505027966046" y="0" dx="0em" dy="0.95em" fill="rgb(50, 49, 63)" stroke="none" stroke-width="1px">700k</text><text style="text-anchor: middle; visibility: inherit; font-family: &quot;Helvetica Neue&quot;, sans-serif; font-size: 12px; font-weight: 200;" x="203.5159975399813" y="0" dx="0em" dy="0.95em" fill="rgb(50, 49, 63)" stroke="none" stroke-width="1px">800k</text><text style="text-anchor: middle; visibility: hidden; font-family: &quot;Helvetica Neue&quot;, sans-serif; font-size: 12px; font-weight: 200;" x="225.7569448003022" y="0" dx="0em" dy="0.95em" fill="rgb(50, 49, 63)" stroke="none" stroke-width="1px">900k</text><text style="text-anchor: middle; visibility: inherit; font-family: &quot;Helvetica Neue&quot;, sans-serif; font-size: 12px; font-weight: 200;" x="247.9978920606231" y="0" dx="0em" dy="0.95em" fill="rgb(50, 49, 63)" stroke="none" stroke-width="1px">1M</text></g><line x1="0" y1="0" x2="260.02399826049805" y2="0" fill="rgb(0, 0, 0)" stroke="rgb(204, 204, 204)" stroke-width="1px"></line></g></g></g></g></svg>